<?xml version="1.0" encoding="UTF-8"?>
<!DOCTYPE svg PUBLIC "-//W3C//DTD SVG 1.1//EN" "http://www.w3.org/Graphics/SVG/1.1/DTD/svg11.dtd">
<svg xmlns="http://www.w3.org/2000/svg" version="1.1" width="860px" height="708px" style="shape-rendering:geometricPrecision; text-rendering:geometricPrecision; image-rendering:optimizeQuality; fill-rule:evenodd; clip-rule:evenodd" xmlns:xlink="http://www.w3.org/1999/xlink">
<g><path style="opacity:1" fill="#fefffe" d="M -0.5,-0.5 C 6.16667,-0.5 12.8333,-0.5 19.5,-0.5C 19.5,6.16667 19.5,12.8333 19.5,19.5C 12.8333,19.5 6.16667,19.5 -0.5,19.5C -0.5,12.8333 -0.5,6.16667 -0.5,-0.5 Z"/></g>
<g><path style="opacity:1" fill="#edeeed" d="M 19.5,-0.5 C 26.1667,-0.5 32.8333,-0.5 39.5,-0.5C 39.5,6.16667 39.5,12.8333 39.5,19.5C 32.8333,19.5 26.1667,19.5 19.5,19.5C 19.5,12.8333 19.5,6.16667 19.5,-0.5 Z"/></g>
<g><path style="opacity:1" fill="#fefffe" d="M 39.5,-0.5 C 46.1667,-0.5 52.8333,-0.5 59.5,-0.5C 59.5,6.16667 59.5,12.8333 59.5,19.5C 52.8333,19.5 46.1667,19.5 39.5,19.5C 39.5,12.8333 39.5,6.16667 39.5,-0.5 Z"/></g>
<g><path style="opacity:1" fill="#edeeed" d="M 59.5,-0.5 C 66.1667,-0.5 72.8333,-0.5 79.5,-0.5C 79.5,6.16667 79.5,12.8333 79.5,19.5C 72.8333,19.5 66.1667,19.5 59.5,19.5C 59.5,12.8333 59.5,6.16667 59.5,-0.5 Z"/></g>
<g><path style="opacity:1" fill="#fefffe" d="M 79.5,-0.5 C 86.1667,-0.5 92.8333,-0.5 99.5,-0.5C 99.5,6.16667 99.5,12.8333 99.5,19.5C 92.8333,19.5 86.1667,19.5 79.5,19.5C 79.5,12.8333 79.5,6.16667 79.5,-0.5 Z"/></g>
<g><path style="opacity:1" fill="#edeeed" d="M 99.5,-0.5 C 106.167,-0.5 112.833,-0.5 119.5,-0.5C 119.5,6.16667 119.5,12.8333 119.5,19.5C 112.833,19.5 106.167,19.5 99.5,19.5C 99.5,12.8333 99.5,6.16667 99.5,-0.5 Z"/></g>
<g><path style="opacity:1" fill="#fefffe" d="M 119.5,-0.5 C 126.167,-0.5 132.833,-0.5 139.5,-0.5C 139.5,6.16667 139.5,12.8333 139.5,19.5C 132.833,19.5 126.167,19.5 119.5,19.5C 119.5,12.8333 119.5,6.16667 119.5,-0.5 Z"/></g>
<g><path style="opacity:1" fill="#edeeed" d="M 139.5,-0.5 C 146.167,-0.5 152.833,-0.5 159.5,-0.5C 159.5,6.16667 159.5,12.8333 159.5,19.5C 152.833,19.5 146.167,19.5 139.5,19.5C 139.5,12.8333 139.5,6.16667 139.5,-0.5 Z"/></g>
<g><path style="opacity:1" fill="#fefffe" d="M 159.5,-0.5 C 166.167,-0.5 172.833,-0.5 179.5,-0.5C 179.5,6.16667 179.5,12.8333 179.5,19.5C 172.833,19.5 166.167,19.5 159.5,19.5C 159.5,12.8333 159.5,6.16667 159.5,-0.5 Z"/></g>
<g><path style="opacity:1" fill="#edeeed" d="M 179.5,-0.5 C 186.167,-0.5 192.833,-0.5 199.5,-0.5C 199.5,6.16667 199.5,12.8333 199.5,19.5C 192.833,19.5 186.167,19.5 179.5,19.5C 179.5,12.8333 179.5,6.16667 179.5,-0.5 Z"/></g>
<g><path style="opacity:1" fill="#fefffe" d="M 199.5,-0.5 C 206.167,-0.5 212.833,-0.5 219.5,-0.5C 219.5,6.16667 219.5,12.8333 219.5,19.5C 212.833,19.5 206.167,19.5 199.5,19.5C 199.5,12.8333 199.5,6.16667 199.5,-0.5 Z"/></g>
<g><path style="opacity:1" fill="#edeeed" d="M 219.5,-0.5 C 226.167,-0.5 232.833,-0.5 239.5,-0.5C 239.5,6.16667 239.5,12.8333 239.5,19.5C 232.833,19.5 226.167,19.5 219.5,19.5C 219.5,12.8333 219.5,6.16667 219.5,-0.5 Z"/></g>
<g><path style="opacity:1" fill="#fefffe" d="M 239.5,-0.5 C 246.167,-0.5 252.833,-0.5 259.5,-0.5C 259.5,6.16667 259.5,12.8333 259.5,19.5C 252.833,19.5 246.167,19.5 239.5,19.5C 239.5,12.8333 239.5,6.16667 239.5,-0.5 Z"/></g>
<g><path style="opacity:1" fill="#edeeed" d="M 259.5,-0.5 C 266.167,-0.5 272.833,-0.5 279.5,-0.5C 279.5,6.16667 279.5,12.8333 279.5,19.5C 272.833,19.5 266.167,19.5 259.5,19.5C 259.5,12.8333 259.5,6.16667 259.5,-0.5 Z"/></g>
<g><path style="opacity:1" fill="#fefffe" d="M 279.5,-0.5 C 286.167,-0.5 292.833,-0.5 299.5,-0.5C 299.5,6.16667 299.5,12.8333 299.5,19.5C 292.833,19.5 286.167,19.5 279.5,19.5C 279.5,12.8333 279.5,6.16667 279.5,-0.5 Z"/></g>
<g><path style="opacity:1" fill="#edeeed" d="M 299.5,-0.5 C 306.167,-0.5 312.833,-0.5 319.5,-0.5C 319.5,6.16667 319.5,12.8333 319.5,19.5C 312.833,19.5 306.167,19.5 299.5,19.5C 299.5,12.8333 299.5,6.16667 299.5,-0.5 Z"/></g>
<g><path style="opacity:1" fill="#fefffe" d="M 319.5,-0.5 C 326.167,-0.5 332.833,-0.5 339.5,-0.5C 339.5,6.16667 339.5,12.8333 339.5,19.5C 332.833,19.5 326.167,19.5 319.5,19.5C 319.5,12.8333 319.5,6.16667 319.5,-0.5 Z"/></g>
<g><path style="opacity:1" fill="#edeeed" d="M 339.5,-0.5 C 346.167,-0.5 352.833,-0.5 359.5,-0.5C 359.5,6.16667 359.5,12.8333 359.5,19.5C 352.833,19.5 346.167,19.5 339.5,19.5C 339.5,12.8333 339.5,6.16667 339.5,-0.5 Z"/></g>
<g><path style="opacity:1" fill="#fefffe" d="M 359.5,-0.5 C 366.167,-0.5 372.833,-0.5 379.5,-0.5C 379.5,6.16667 379.5,12.8333 379.5,19.5C 372.833,19.5 366.167,19.5 359.5,19.5C 359.5,12.8333 359.5,6.16667 359.5,-0.5 Z"/></g>
<g><path style="opacity:1" fill="#edeeed" d="M 379.5,-0.5 C 386.167,-0.5 392.833,-0.5 399.5,-0.5C 399.5,6.16667 399.5,12.8333 399.5,19.5C 392.833,19.5 386.167,19.5 379.5,19.5C 379.5,12.8333 379.5,6.16667 379.5,-0.5 Z"/></g>
<g><path style="opacity:1" fill="#fefffe" d="M 399.5,-0.5 C 406.167,-0.5 412.833,-0.5 419.5,-0.5C 419.5,6.16667 419.5,12.8333 419.5,19.5C 412.833,19.5 406.167,19.5 399.5,19.5C 399.5,12.8333 399.5,6.16667 399.5,-0.5 Z"/></g>
<g><path style="opacity:1" fill="#edeeed" d="M 419.5,-0.5 C 426.167,-0.5 432.833,-0.5 439.5,-0.5C 439.5,6.16667 439.5,12.8333 439.5,19.5C 432.833,19.5 426.167,19.5 419.5,19.5C 419.5,12.8333 419.5,6.16667 419.5,-0.5 Z"/></g>
<g><path style="opacity:1" fill="#fefffe" d="M 439.5,-0.5 C 446.167,-0.5 452.833,-0.5 459.5,-0.5C 459.5,6.16667 459.5,12.8333 459.5,19.5C 452.833,19.5 446.167,19.5 439.5,19.5C 439.5,12.8333 439.5,6.16667 439.5,-0.5 Z"/></g>
<g><path style="opacity:1" fill="#edeeed" d="M 459.5,-0.5 C 466.167,-0.5 472.833,-0.5 479.5,-0.5C 479.5,6.16667 479.5,12.8333 479.5,19.5C 472.833,19.5 466.167,19.5 459.5,19.5C 459.5,12.8333 459.5,6.16667 459.5,-0.5 Z"/></g>
<g><path style="opacity:1" fill="#edeeed" d="M -0.5,19.5 C 6.16667,19.5 12.8333,19.5 19.5,19.5C 19.5,26.1667 19.5,32.8333 19.5,39.5C 12.8333,39.5 6.16667,39.5 -0.5,39.5C -0.5,32.8333 -0.5,26.1667 -0.5,19.5 Z"/></g>
<g><path style="opacity:1" fill="#fefffe" d="M 19.5,19.5 C 26.1667,19.5 32.8333,19.5 39.5,19.5C 39.5,26.1667 39.5,32.8333 39.5,39.5C 32.8333,39.5 26.1667,39.5 19.5,39.5C 19.5,32.8333 19.5,26.1667 19.5,19.5 Z"/></g>
<g><path style="opacity:1" fill="#edeeed" d="M 39.5,19.5 C 46.1667,19.5 52.8333,19.5 59.5,19.5C 59.5,26.1667 59.5,32.8333 59.5,39.5C 52.8333,39.5 46.1667,39.5 39.5,39.5C 39.5,32.8333 39.5,26.1667 39.5,19.5 Z"/></g>
<g><path style="opacity:1" fill="#fefffe" d="M 59.5,19.5 C 66.1667,19.5 72.8333,19.5 79.5,19.5C 79.5,26.1667 79.5,32.8333 79.5,39.5C 72.8333,39.5 66.1667,39.5 59.5,39.5C 59.5,32.8333 59.5,26.1667 59.5,19.5 Z"/></g>
<g><path style="opacity:1" fill="#edeeed" d="M 79.5,19.5 C 86.1667,19.5 92.8333,19.5 99.5,19.5C 99.5,26.1667 99.5,32.8333 99.5,39.5C 92.8333,39.5 86.1667,39.5 79.5,39.5C 79.5,32.8333 79.5,26.1667 79.5,19.5 Z"/></g>
<g><path style="opacity:1" fill="#fefffe" d="M 99.5,19.5 C 106.167,19.5 112.833,19.5 119.5,19.5C 119.5,26.1667 119.5,32.8333 119.5,39.5C 112.833,39.5 106.167,39.5 99.5,39.5C 99.5,32.8333 99.5,26.1667 99.5,19.5 Z"/></g>
<g><path style="opacity:1" fill="#edeeed" d="M 119.5,19.5 C 126.167,19.5 132.833,19.5 139.5,19.5C 139.5,26.1667 139.5,32.8333 139.5,39.5C 132.833,39.5 126.167,39.5 119.5,39.5C 119.5,32.8333 119.5,26.1667 119.5,19.5 Z"/></g>
<g><path style="opacity:1" fill="#fefffe" d="M 139.5,19.5 C 146.167,19.5 152.833,19.5 159.5,19.5C 159.5,26.1667 159.5,32.8333 159.5,39.5C 152.833,39.5 146.167,39.5 139.5,39.5C 139.5,32.8333 139.5,26.1667 139.5,19.5 Z"/></g>
<g><path style="opacity:1" fill="#edeeed" d="M 159.5,19.5 C 166.167,19.5 172.833,19.5 179.5,19.5C 179.5,26.1667 179.5,32.8333 179.5,39.5C 172.833,39.5 166.167,39.5 159.5,39.5C 159.5,32.8333 159.5,26.1667 159.5,19.5 Z"/></g>
<g><path style="opacity:1" fill="#fefffe" d="M 179.5,19.5 C 186.167,19.5 192.833,19.5 199.5,19.5C 199.5,26.1667 199.5,32.8333 199.5,39.5C 192.833,39.5 186.167,39.5 179.5,39.5C 179.5,32.8333 179.5,26.1667 179.5,19.5 Z"/></g>
<g><path style="opacity:1" fill="#edeeed" d="M 199.5,19.5 C 206.167,19.5 212.833,19.5 219.5,19.5C 219.5,26.1667 219.5,32.8333 219.5,39.5C 212.833,39.5 206.167,39.5 199.5,39.5C 199.5,32.8333 199.5,26.1667 199.5,19.5 Z"/></g>
<g><path style="opacity:1" fill="#fefffe" d="M 219.5,19.5 C 226.167,19.5 232.833,19.5 239.5,19.5C 239.5,26.1667 239.5,32.8333 239.5,39.5C 232.833,39.5 226.167,39.5 219.5,39.5C 219.5,32.8333 219.5,26.1667 219.5,19.5 Z"/></g>
<g><path style="opacity:1" fill="#edeeed" d="M 239.5,19.5 C 246.167,19.5 252.833,19.5 259.5,19.5C 259.5,26.1667 259.5,32.8333 259.5,39.5C 252.833,39.5 246.167,39.5 239.5,39.5C 239.5,32.8333 239.5,26.1667 239.5,19.5 Z"/></g>
<g><path style="opacity:1" fill="#fefffe" d="M 259.5,19.5 C 266.167,19.5 272.833,19.5 279.5,19.5C 279.5,26.1667 279.5,32.8333 279.5,39.5C 272.833,39.5 266.167,39.5 259.5,39.5C 259.5,32.8333 259.5,26.1667 259.5,19.5 Z"/></g>
<g><path style="opacity:1" fill="#edeeed" d="M 279.5,19.5 C 286.167,19.5 292.833,19.5 299.5,19.5C 299.5,26.1667 299.5,32.8333 299.5,39.5C 292.833,39.5 286.167,39.5 279.5,39.5C 279.5,32.8333 279.5,26.1667 279.5,19.5 Z"/></g>
<g><path style="opacity:1" fill="#f6f6f6" d="M 479.5,-0.5 C 606.167,-0.5 732.833,-0.5 859.5,-0.5C 859.5,166.167 859.5,332.833 859.5,499.5C 852.833,499.5 846.167,499.5 839.5,499.5C 839.5,492.833 839.5,486.167 839.5,479.5C 832.833,479.5 826.167,479.5 819.5,479.5C 819.5,472.833 819.5,466.167 819.5,459.5C 812.833,459.5 806.167,459.5 799.5,459.5C 799.5,452.833 799.5,446.167 799.5,439.5C 792.833,439.5 786.167,439.5 779.5,439.5C 779.5,432.833 779.5,426.167 779.5,419.5C 772.833,419.5 766.167,419.5 759.5,419.5C 759.5,412.833 759.5,406.167 759.5,399.5C 752.833,399.5 746.167,399.5 739.5,399.5C 739.5,392.833 739.5,386.167 739.5,379.5C 732.833,379.5 726.167,379.5 719.5,379.5C 719.5,372.833 719.5,366.167 719.5,359.5C 719.5,352.833 719.5,346.167 719.5,339.5C 719.5,332.833 719.5,326.167 719.5,319.5C 719.5,312.833 719.5,306.167 719.5,299.5C 719.5,292.833 719.5,286.167 719.5,279.5C 719.5,272.833 719.5,266.167 719.5,259.5C 719.5,252.833 719.5,246.167 719.5,239.5C 712.833,239.5 706.167,239.5 699.5,239.5C 699.5,232.833 699.5,226.167 699.5,219.5C 697.833,219.5 696.167,219.5 694.5,219.5C 690.747,191.074 680.247,165.407 663,142.5C 651.063,129.612 636.563,120.945 619.5,116.5C 619.5,110.833 619.5,105.167 619.5,99.5C 613.833,99.5 608.167,99.5 602.5,99.5C 588.426,67.7561 564.092,48.9228 529.5,43C 499.135,37.2481 471.468,43.2481 446.5,61C 441.25,65.7445 436.583,70.9112 432.5,76.5C 402.91,45.186 367.91,37.0194 327.5,52C 297.875,68.0422 280.708,92.8755 276,126.5C 275.503,138.217 275.836,149.883 277,161.5C 264.962,165.679 253.128,170.345 241.5,175.5C 239.554,170.604 238.887,165.271 239.5,159.5C 239.5,152.833 239.5,146.167 239.5,139.5C 239.5,132.833 239.5,126.167 239.5,119.5C 239.5,112.833 239.5,106.167 239.5,99.5C 246.167,99.5 252.833,99.5 259.5,99.5C 259.5,92.8333 259.5,86.1667 259.5,79.5C 266.167,79.5 272.833,79.5 279.5,79.5C 279.5,72.8333 279.5,66.1667 279.5,59.5C 279.5,52.8333 279.5,46.1667 279.5,39.5C 286.167,39.5 292.833,39.5 299.5,39.5C 299.5,32.8333 299.5,26.1667 299.5,19.5C 306.167,19.5 312.833,19.5 319.5,19.5C 326.167,19.5 332.833,19.5 339.5,19.5C 346.167,19.5 352.833,19.5 359.5,19.5C 366.167,19.5 372.833,19.5 379.5,19.5C 379.5,26.1667 379.5,32.8333 379.5,39.5C 386.167,39.5 392.833,39.5 399.5,39.5C 399.5,32.8333 399.5,26.1667 399.5,19.5C 406.167,19.5 412.833,19.5 419.5,19.5C 426.167,19.5 432.833,19.5 439.5,19.5C 446.167,19.5 452.833,19.5 459.5,19.5C 466.167,19.5 472.833,19.5 479.5,19.5C 479.5,12.8333 479.5,6.16667 479.5,-0.5 Z"/></g>
<g><path style="opacity:1" fill="#fefffe" d="M 379.5,19.5 C 386.167,19.5 392.833,19.5 399.5,19.5C 399.5,26.1667 399.5,32.8333 399.5,39.5C 392.833,39.5 386.167,39.5 379.5,39.5C 379.5,32.8333 379.5,26.1667 379.5,19.5 Z"/></g>
<g><path style="opacity:1" fill="#fefffe" d="M -0.5,39.5 C 6.16667,39.5 12.8333,39.5 19.5,39.5C 19.5,46.1667 19.5,52.8333 19.5,59.5C 12.8333,59.5 6.16667,59.5 -0.5,59.5C -0.5,52.8333 -0.5,46.1667 -0.5,39.5 Z"/></g>
<g><path style="opacity:1" fill="#edeeed" d="M 19.5,39.5 C 26.1667,39.5 32.8333,39.5 39.5,39.5C 39.5,46.1667 39.5,52.8333 39.5,59.5C 32.8333,59.5 26.1667,59.5 19.5,59.5C 19.5,52.8333 19.5,46.1667 19.5,39.5 Z"/></g>
<g><path style="opacity:1" fill="#fefffe" d="M 39.5,39.5 C 46.1667,39.5 52.8333,39.5 59.5,39.5C 59.5,46.1667 59.5,52.8333 59.5,59.5C 52.8333,59.5 46.1667,59.5 39.5,59.5C 39.5,52.8333 39.5,46.1667 39.5,39.5 Z"/></g>
<g><path style="opacity:1" fill="#edeeed" d="M 59.5,39.5 C 66.1667,39.5 72.8333,39.5 79.5,39.5C 79.5,46.1667 79.5,52.8333 79.5,59.5C 72.8333,59.5 66.1667,59.5 59.5,59.5C 59.5,52.8333 59.5,46.1667 59.5,39.5 Z"/></g>
<g><path style="opacity:1" fill="#fefffe" d="M 79.5,39.5 C 86.1667,39.5 92.8333,39.5 99.5,39.5C 99.5,46.1667 99.5,52.8333 99.5,59.5C 92.8333,59.5 86.1667,59.5 79.5,59.5C 79.5,52.8333 79.5,46.1667 79.5,39.5 Z"/></g>
<g><path style="opacity:1" fill="#edeeed" d="M 99.5,39.5 C 106.167,39.5 112.833,39.5 119.5,39.5C 119.5,46.1667 119.5,52.8333 119.5,59.5C 112.833,59.5 106.167,59.5 99.5,59.5C 99.5,52.8333 99.5,46.1667 99.5,39.5 Z"/></g>
<g><path style="opacity:1" fill="#fefffe" d="M 119.5,39.5 C 126.167,39.5 132.833,39.5 139.5,39.5C 139.5,46.1667 139.5,52.8333 139.5,59.5C 132.833,59.5 126.167,59.5 119.5,59.5C 119.5,52.8333 119.5,46.1667 119.5,39.5 Z"/></g>
<g><path style="opacity:1" fill="#edeeed" d="M 139.5,39.5 C 146.167,39.5 152.833,39.5 159.5,39.5C 159.5,46.1667 159.5,52.8333 159.5,59.5C 152.833,59.5 146.167,59.5 139.5,59.5C 139.5,52.8333 139.5,46.1667 139.5,39.5 Z"/></g>
<g><path style="opacity:1" fill="#fefffe" d="M 159.5,39.5 C 166.167,39.5 172.833,39.5 179.5,39.5C 179.5,46.1667 179.5,52.8333 179.5,59.5C 172.833,59.5 166.167,59.5 159.5,59.5C 159.5,52.8333 159.5,46.1667 159.5,39.5 Z"/></g>
<g><path style="opacity:1" fill="#edeeed" d="M 179.5,39.5 C 186.167,39.5 192.833,39.5 199.5,39.5C 199.5,46.1667 199.5,52.8333 199.5,59.5C 192.833,59.5 186.167,59.5 179.5,59.5C 179.5,52.8333 179.5,46.1667 179.5,39.5 Z"/></g>
<g><path style="opacity:1" fill="#fefffe" d="M 199.5,39.5 C 206.167,39.5 212.833,39.5 219.5,39.5C 219.5,46.1667 219.5,52.8333 219.5,59.5C 212.833,59.5 206.167,59.5 199.5,59.5C 199.5,52.8333 199.5,46.1667 199.5,39.5 Z"/></g>
<g><path style="opacity:1" fill="#edeeed" d="M 219.5,39.5 C 226.167,39.5 232.833,39.5 239.5,39.5C 239.5,46.1667 239.5,52.8333 239.5,59.5C 232.833,59.5 226.167,59.5 219.5,59.5C 219.5,52.8333 219.5,46.1667 219.5,39.5 Z"/></g>
<g><path style="opacity:1" fill="#fefffe" d="M 239.5,39.5 C 246.167,39.5 252.833,39.5 259.5,39.5C 259.5,46.1667 259.5,52.8333 259.5,59.5C 252.833,59.5 246.167,59.5 239.5,59.5C 239.5,52.8333 239.5,46.1667 239.5,39.5 Z"/></g>
<g><path style="opacity:1" fill="#edeeed" d="M 259.5,39.5 C 266.167,39.5 272.833,39.5 279.5,39.5C 279.5,46.1667 279.5,52.8333 279.5,59.5C 272.833,59.5 266.167,59.5 259.5,59.5C 259.5,52.8333 259.5,46.1667 259.5,39.5 Z"/></g>
<g><path style="opacity:1" fill="#030303" d="M 602.5,99.5 C 604.719,104.588 606.052,109.921 606.5,115.5C 610.842,115.739 615.176,116.073 619.5,116.5C 636.563,120.945 651.063,129.612 663,142.5C 680.247,165.407 690.747,191.074 694.5,219.5C 699.363,266.768 697.363,313.768 688.5,360.5C 679.461,402.618 664.128,442.285 642.5,479.5C 614.327,525.839 576.494,562.172 529,588.5C 532.058,598.375 532.225,608.375 529.5,618.5C 523.975,632.867 514.309,643.701 500.5,651C 479.287,662.47 456.621,667.97 432.5,667.5C 378.02,665.133 327.02,650.8 279.5,624.5C 269.555,617.522 260.889,609.188 253.5,599.5C 240.903,584.13 235.236,566.463 236.5,546.5C 237.629,538.236 240.462,530.569 245,523.5C 245.667,522.5 245.667,521.5 245,520.5C 190.58,455.591 163.247,380.591 163,295.5C 165.058,267.907 173.558,242.573 188.5,219.5C 202.564,200.431 220.231,185.764 241.5,175.5C 253.128,170.345 264.962,165.679 277,161.5C 275.836,149.883 275.503,138.217 276,126.5C 280.708,92.8755 297.875,68.0422 327.5,52C 367.91,37.0194 402.91,45.186 432.5,76.5C 436.583,70.9112 441.25,65.7445 446.5,61C 471.468,43.2481 499.135,37.2481 529.5,43C 564.092,48.9228 588.426,67.7561 602.5,99.5 Z"/></g>
<g><path style="opacity:1" fill="#edeeed" d="M -0.5,59.5 C 6.16667,59.5 12.8333,59.5 19.5,59.5C 19.5,66.1667 19.5,72.8333 19.5,79.5C 12.8333,79.5 6.16667,79.5 -0.5,79.5C -0.5,72.8333 -0.5,66.1667 -0.5,59.5 Z"/></g>
<g><path style="opacity:1" fill="#fefffe" d="M 19.5,59.5 C 26.1667,59.5 32.8333,59.5 39.5,59.5C 39.5,66.1667 39.5,72.8333 39.5,79.5C 32.8333,79.5 26.1667,79.5 19.5,79.5C 19.5,72.8333 19.5,66.1667 19.5,59.5 Z"/></g>
<g><path style="opacity:1" fill="#edeeed" d="M 39.5,59.5 C 46.1667,59.5 52.8333,59.5 59.5,59.5C 59.5,66.1667 59.5,72.8333 59.5,79.5C 52.8333,79.5 46.1667,79.5 39.5,79.5C 39.5,72.8333 39.5,66.1667 39.5,59.5 Z"/></g>
<g><path style="opacity:1" fill="#fefffe" d="M 59.5,59.5 C 66.1667,59.5 72.8333,59.5 79.5,59.5C 79.5,66.1667 79.5,72.8333 79.5,79.5C 72.8333,79.5 66.1667,79.5 59.5,79.5C 59.5,72.8333 59.5,66.1667 59.5,59.5 Z"/></g>
<g><path style="opacity:1" fill="#edeeed" d="M 79.5,59.5 C 86.1667,59.5 92.8333,59.5 99.5,59.5C 99.5,66.1667 99.5,72.8333 99.5,79.5C 92.8333,79.5 86.1667,79.5 79.5,79.5C 79.5,72.8333 79.5,66.1667 79.5,59.5 Z"/></g>
<g><path style="opacity:1" fill="#fefffe" d="M 99.5,59.5 C 106.167,59.5 112.833,59.5 119.5,59.5C 119.5,66.1667 119.5,72.8333 119.5,79.5C 112.833,79.5 106.167,79.5 99.5,79.5C 99.5,72.8333 99.5,66.1667 99.5,59.5 Z"/></g>
<g><path style="opacity:1" fill="#edeeed" d="M 119.5,59.5 C 126.167,59.5 132.833,59.5 139.5,59.5C 139.5,66.1667 139.5,72.8333 139.5,79.5C 132.833,79.5 126.167,79.5 119.5,79.5C 119.5,72.8333 119.5,66.1667 119.5,59.5 Z"/></g>
<g><path style="opacity:1" fill="#fefffe" d="M 139.5,59.5 C 146.167,59.5 152.833,59.5 159.5,59.5C 159.5,66.1667 159.5,72.8333 159.5,79.5C 152.833,79.5 146.167,79.5 139.5,79.5C 139.5,72.8333 139.5,66.1667 139.5,59.5 Z"/></g>
<g><path style="opacity:1" fill="#edeeed" d="M 159.5,59.5 C 166.167,59.5 172.833,59.5 179.5,59.5C 179.5,66.1667 179.5,72.8333 179.5,79.5C 172.833,79.5 166.167,79.5 159.5,79.5C 159.5,72.8333 159.5,66.1667 159.5,59.5 Z"/></g>
<g><path style="opacity:1" fill="#fefffe" d="M 179.5,59.5 C 186.167,59.5 192.833,59.5 199.5,59.5C 199.5,66.1667 199.5,72.8333 199.5,79.5C 192.833,79.5 186.167,79.5 179.5,79.5C 179.5,72.8333 179.5,66.1667 179.5,59.5 Z"/></g>
<g><path style="opacity:1" fill="#edeeed" d="M 199.5,59.5 C 206.167,59.5 212.833,59.5 219.5,59.5C 219.5,66.1667 219.5,72.8333 219.5,79.5C 212.833,79.5 206.167,79.5 199.5,79.5C 199.5,72.8333 199.5,66.1667 199.5,59.5 Z"/></g>
<g><path style="opacity:1" fill="#fefffe" d="M 219.5,59.5 C 226.167,59.5 232.833,59.5 239.5,59.5C 239.5,66.1667 239.5,72.8333 239.5,79.5C 232.833,79.5 226.167,79.5 219.5,79.5C 219.5,72.8333 219.5,66.1667 219.5,59.5 Z"/></g>
<g><path style="opacity:1" fill="#edeeed" d="M 239.5,59.5 C 246.167,59.5 252.833,59.5 259.5,59.5C 259.5,66.1667 259.5,72.8333 259.5,79.5C 252.833,79.5 246.167,79.5 239.5,79.5C 239.5,72.8333 239.5,66.1667 239.5,59.5 Z"/></g>
<g><path style="opacity:1" fill="#fefffe" d="M 259.5,59.5 C 266.167,59.5 272.833,59.5 279.5,59.5C 279.5,66.1667 279.5,72.8333 279.5,79.5C 272.833,79.5 266.167,79.5 259.5,79.5C 259.5,72.8333 259.5,66.1667 259.5,59.5 Z"/></g>
<g><path style="opacity:1" fill="#fefefe" d="M 591.5,236.5 C 591.335,240.182 591.501,243.848 592,247.5C 592.513,246.473 593.013,245.473 593.5,244.5C 598.567,229.564 602.067,214.231 604,198.5C 606.066,178.209 607.566,157.876 608.5,137.5C 628.209,141.264 643.376,151.597 654,168.5C 667.402,194.504 674.069,222.17 674,251.5C 678.895,333.59 659.562,409.257 616,478.5C 586.994,522.509 548.494,555.343 500.5,577C 487.09,580.718 473.424,582.218 459.5,581.5C 416.877,580.409 375.543,572.575 335.5,558C 301.231,544.067 273.064,522.233 251,492.5C 210.828,438.157 188.995,377.157 185.5,309.5C 186.451,244.718 217.951,203.051 280,184.5C 281.26,220.455 273.26,254.121 256,285.5C 247.833,298.5 239.667,311.5 231.5,324.5C 232.002,325.521 232.668,325.688 233.5,325C 246.643,311.855 259.476,298.355 272,284.5C 285.519,266.291 294.185,245.957 298,223.5C 300.964,209.487 302.464,195.32 302.5,181C 301.376,166.167 300.042,151.333 298.5,136.5C 299.807,106.356 313.807,84.5226 340.5,71C 371.767,61.8662 397.6,70.0329 418,95.5C 422.38,102.598 425.38,110.265 427,118.5C 433.38,152.638 438.38,186.972 442,221.5C 449.897,190.964 452.564,159.964 450,128.5C 441.494,101.296 449.994,81.7961 475.5,70C 508.69,58.0736 539.024,63.0736 566.5,85C 578.576,97.3241 585.076,112.157 586,129.5C 587.061,165.212 588.894,200.878 591.5,236.5 Z"/></g>
<g><path style="opacity:1" fill="#fefffe" d="M -0.5,79.5 C 6.16667,79.5 12.8333,79.5 19.5,79.5C 19.5,86.1667 19.5,92.8333 19.5,99.5C 12.8333,99.5 6.16667,99.5 -0.5,99.5C -0.5,92.8333 -0.5,86.1667 -0.5,79.5 Z"/></g>
<g><path style="opacity:1" fill="#edeeed" d="M 19.5,79.5 C 26.1667,79.5 32.8333,79.5 39.5,79.5C 39.5,86.1667 39.5,92.8333 39.5,99.5C 32.8333,99.5 26.1667,99.5 19.5,99.5C 19.5,92.8333 19.5,86.1667 19.5,79.5 Z"/></g>
<g><path style="opacity:1" fill="#fefffe" d="M 39.5,79.5 C 46.1667,79.5 52.8333,79.5 59.5,79.5C 59.5,86.1667 59.5,92.8333 59.5,99.5C 52.8333,99.5 46.1667,99.5 39.5,99.5C 39.5,92.8333 39.5,86.1667 39.5,79.5 Z"/></g>
<g><path style="opacity:1" fill="#edeeed" d="M 59.5,79.5 C 66.1667,79.5 72.8333,79.5 79.5,79.5C 79.5,86.1667 79.5,92.8333 79.5,99.5C 72.8333,99.5 66.1667,99.5 59.5,99.5C 59.5,92.8333 59.5,86.1667 59.5,79.5 Z"/></g>
<g><path style="opacity:1" fill="#fefffe" d="M 79.5,79.5 C 86.1667,79.5 92.8333,79.5 99.5,79.5C 99.5,86.1667 99.5,92.8333 99.5,99.5C 92.8333,99.5 86.1667,99.5 79.5,99.5C 79.5,92.8333 79.5,86.1667 79.5,79.5 Z"/></g>
<g><path style="opacity:1" fill="#edeeed" d="M 99.5,79.5 C 106.167,79.5 112.833,79.5 119.5,79.5C 119.5,86.1667 119.5,92.8333 119.5,99.5C 112.833,99.5 106.167,99.5 99.5,99.5C 99.5,92.8333 99.5,86.1667 99.5,79.5 Z"/></g>
<g><path style="opacity:1" fill="#fefffe" d="M 119.5,79.5 C 126.167,79.5 132.833,79.5 139.5,79.5C 139.5,86.1667 139.5,92.8333 139.5,99.5C 132.833,99.5 126.167,99.5 119.5,99.5C 119.5,92.8333 119.5,86.1667 119.5,79.5 Z"/></g>
<g><path style="opacity:1" fill="#edeeed" d="M 139.5,79.5 C 146.167,79.5 152.833,79.5 159.5,79.5C 159.5,86.1667 159.5,92.8333 159.5,99.5C 152.833,99.5 146.167,99.5 139.5,99.5C 139.5,92.8333 139.5,86.1667 139.5,79.5 Z"/></g>
<g><path style="opacity:1" fill="#fefffe" d="M 159.5,79.5 C 166.167,79.5 172.833,79.5 179.5,79.5C 179.5,86.1667 179.5,92.8333 179.5,99.5C 172.833,99.5 166.167,99.5 159.5,99.5C 159.5,92.8333 159.5,86.1667 159.5,79.5 Z"/></g>
<g><path style="opacity:1" fill="#edeeed" d="M 179.5,79.5 C 186.167,79.5 192.833,79.5 199.5,79.5C 199.5,86.1667 199.5,92.8333 199.5,99.5C 192.833,99.5 186.167,99.5 179.5,99.5C 179.5,92.8333 179.5,86.1667 179.5,79.5 Z"/></g>
<g><path style="opacity:1" fill="#fefffe" d="M 199.5,79.5 C 206.167,79.5 212.833,79.5 219.5,79.5C 219.5,86.1667 219.5,92.8333 219.5,99.5C 212.833,99.5 206.167,99.5 199.5,99.5C 199.5,92.8333 199.5,86.1667 199.5,79.5 Z"/></g>
<g><path style="opacity:1" fill="#edeeed" d="M 219.5,79.5 C 226.167,79.5 232.833,79.5 239.5,79.5C 239.5,86.1667 239.5,92.8333 239.5,99.5C 232.833,99.5 226.167,99.5 219.5,99.5C 219.5,92.8333 219.5,86.1667 219.5,79.5 Z"/></g>
<g><path style="opacity:1" fill="#fefffe" d="M 239.5,79.5 C 246.167,79.5 252.833,79.5 259.5,79.5C 259.5,86.1667 259.5,92.8333 259.5,99.5C 252.833,99.5 246.167,99.5 239.5,99.5C 239.5,92.8333 239.5,86.1667 239.5,79.5 Z"/></g>
<g><path style="opacity:1" fill="#edeeed" d="M -0.5,99.5 C 6.16667,99.5 12.8333,99.5 19.5,99.5C 19.5,106.167 19.5,112.833 19.5,119.5C 12.8333,119.5 6.16667,119.5 -0.5,119.5C -0.5,112.833 -0.5,106.167 -0.5,99.5 Z"/></g>
<g><path style="opacity:1" fill="#fefffe" d="M 19.5,99.5 C 26.1667,99.5 32.8333,99.5 39.5,99.5C 39.5,106.167 39.5,112.833 39.5,119.5C 32.8333,119.5 26.1667,119.5 19.5,119.5C 19.5,112.833 19.5,106.167 19.5,99.5 Z"/></g>
<g><path style="opacity:1" fill="#edeeed" d="M 39.5,99.5 C 46.1667,99.5 52.8333,99.5 59.5,99.5C 59.5,106.167 59.5,112.833 59.5,119.5C 52.8333,119.5 46.1667,119.5 39.5,119.5C 39.5,112.833 39.5,106.167 39.5,99.5 Z"/></g>
<g><path style="opacity:1" fill="#fefffe" d="M 59.5,99.5 C 66.1667,99.5 72.8333,99.5 79.5,99.5C 79.5,106.167 79.5,112.833 79.5,119.5C 72.8333,119.5 66.1667,119.5 59.5,119.5C 59.5,112.833 59.5,106.167 59.5,99.5 Z"/></g>
<g><path style="opacity:1" fill="#edeeed" d="M 79.5,99.5 C 86.1667,99.5 92.8333,99.5 99.5,99.5C 99.5,106.167 99.5,112.833 99.5,119.5C 92.8333,119.5 86.1667,119.5 79.5,119.5C 79.5,112.833 79.5,106.167 79.5,99.5 Z"/></g>
<g><path style="opacity:1" fill="#fefffe" d="M 99.5,99.5 C 106.167,99.5 112.833,99.5 119.5,99.5C 119.5,106.167 119.5,112.833 119.5,119.5C 112.833,119.5 106.167,119.5 99.5,119.5C 99.5,112.833 99.5,106.167 99.5,99.5 Z"/></g>
<g><path style="opacity:1" fill="#edeeed" d="M 119.5,99.5 C 126.167,99.5 132.833,99.5 139.5,99.5C 139.5,106.167 139.5,112.833 139.5,119.5C 132.833,119.5 126.167,119.5 119.5,119.5C 119.5,112.833 119.5,106.167 119.5,99.5 Z"/></g>
<g><path style="opacity:1" fill="#fefffe" d="M 139.5,99.5 C 146.167,99.5 152.833,99.5 159.5,99.5C 159.5,106.167 159.5,112.833 159.5,119.5C 152.833,119.5 146.167,119.5 139.5,119.5C 139.5,112.833 139.5,106.167 139.5,99.5 Z"/></g>
<g><path style="opacity:1" fill="#edeeed" d="M 159.5,99.5 C 166.167,99.5 172.833,99.5 179.5,99.5C 179.5,106.167 179.5,112.833 179.5,119.5C 172.833,119.5 166.167,119.5 159.5,119.5C 159.5,112.833 159.5,106.167 159.5,99.5 Z"/></g>
<g><path style="opacity:1" fill="#fefffe" d="M 179.5,99.5 C 186.167,99.5 192.833,99.5 199.5,99.5C 199.5,106.167 199.5,112.833 199.5,119.5C 192.833,119.5 186.167,119.5 179.5,119.5C 179.5,112.833 179.5,106.167 179.5,99.5 Z"/></g>
<g><path style="opacity:1" fill="#edeeed" d="M 199.5,99.5 C 206.167,99.5 212.833,99.5 219.5,99.5C 219.5,106.167 219.5,112.833 219.5,119.5C 212.833,119.5 206.167,119.5 199.5,119.5C 199.5,112.833 199.5,106.167 199.5,99.5 Z"/></g>
<g><path style="opacity:1" fill="#fefffe" d="M 219.5,99.5 C 226.167,99.5 232.833,99.5 239.5,99.5C 239.5,106.167 239.5,112.833 239.5,119.5C 232.833,119.5 226.167,119.5 219.5,119.5C 219.5,112.833 219.5,106.167 219.5,99.5 Z"/></g>
<g><path style="opacity:1" fill="#e9e9e9" d="M 602.5,99.5 C 608.167,99.5 613.833,99.5 619.5,99.5C 619.5,105.167 619.5,110.833 619.5,116.5C 615.176,116.073 610.842,115.739 606.5,115.5C 606.052,109.921 604.719,104.588 602.5,99.5 Z"/></g>
<g><path style="opacity:1" fill="#fefffe" d="M -0.5,119.5 C 6.16667,119.5 12.8333,119.5 19.5,119.5C 19.5,126.167 19.5,132.833 19.5,139.5C 12.8333,139.5 6.16667,139.5 -0.5,139.5C -0.5,132.833 -0.5,126.167 -0.5,119.5 Z"/></g>
<g><path style="opacity:1" fill="#edeeed" d="M 19.5,119.5 C 26.1667,119.5 32.8333,119.5 39.5,119.5C 39.5,126.167 39.5,132.833 39.5,139.5C 32.8333,139.5 26.1667,139.5 19.5,139.5C 19.5,132.833 19.5,126.167 19.5,119.5 Z"/></g>
<g><path style="opacity:1" fill="#fefffe" d="M 39.5,119.5 C 46.1667,119.5 52.8333,119.5 59.5,119.5C 59.5,126.167 59.5,132.833 59.5,139.5C 52.8333,139.5 46.1667,139.5 39.5,139.5C 39.5,132.833 39.5,126.167 39.5,119.5 Z"/></g>
<g><path style="opacity:1" fill="#edeeed" d="M 59.5,119.5 C 66.1667,119.5 72.8333,119.5 79.5,119.5C 79.5,126.167 79.5,132.833 79.5,139.5C 72.8333,139.5 66.1667,139.5 59.5,139.5C 59.5,132.833 59.5,126.167 59.5,119.5 Z"/></g>
<g><path style="opacity:1" fill="#fefffe" d="M 79.5,119.5 C 86.1667,119.5 92.8333,119.5 99.5,119.5C 99.5,126.167 99.5,132.833 99.5,139.5C 92.8333,139.5 86.1667,139.5 79.5,139.5C 79.5,132.833 79.5,126.167 79.5,119.5 Z"/></g>
<g><path style="opacity:1" fill="#edeeed" d="M 99.5,119.5 C 106.167,119.5 112.833,119.5 119.5,119.5C 119.5,126.167 119.5,132.833 119.5,139.5C 112.833,139.5 106.167,139.5 99.5,139.5C 99.5,132.833 99.5,126.167 99.5,119.5 Z"/></g>
<g><path style="opacity:1" fill="#fefffe" d="M 119.5,119.5 C 126.167,119.5 132.833,119.5 139.5,119.5C 139.5,126.167 139.5,132.833 139.5,139.5C 132.833,139.5 126.167,139.5 119.5,139.5C 119.5,132.833 119.5,126.167 119.5,119.5 Z"/></g>
<g><path style="opacity:1" fill="#edeeed" d="M 139.5,119.5 C 146.167,119.5 152.833,119.5 159.5,119.5C 159.5,126.167 159.5,132.833 159.5,139.5C 152.833,139.5 146.167,139.5 139.5,139.5C 139.5,132.833 139.5,126.167 139.5,119.5 Z"/></g>
<g><path style="opacity:1" fill="#fefffe" d="M 159.5,119.5 C 166.167,119.5 172.833,119.5 179.5,119.5C 179.5,126.167 179.5,132.833 179.5,139.5C 172.833,139.5 166.167,139.5 159.5,139.5C 159.5,132.833 159.5,126.167 159.5,119.5 Z"/></g>
<g><path style="opacity:1" fill="#edeeed" d="M 179.5,119.5 C 186.167,119.5 192.833,119.5 199.5,119.5C 199.5,126.167 199.5,132.833 199.5,139.5C 192.833,139.5 186.167,139.5 179.5,139.5C 179.5,132.833 179.5,126.167 179.5,119.5 Z"/></g>
<g><path style="opacity:1" fill="#fefffe" d="M 199.5,119.5 C 206.167,119.5 212.833,119.5 219.5,119.5C 219.5,126.167 219.5,132.833 219.5,139.5C 212.833,139.5 206.167,139.5 199.5,139.5C 199.5,132.833 199.5,126.167 199.5,119.5 Z"/></g>
<g><path style="opacity:1" fill="#edeeed" d="M 219.5,119.5 C 226.167,119.5 232.833,119.5 239.5,119.5C 239.5,126.167 239.5,132.833 239.5,139.5C 232.833,139.5 226.167,139.5 219.5,139.5C 219.5,132.833 219.5,126.167 219.5,119.5 Z"/></g>
<g><path style="opacity:1" fill="#edeeed" d="M -0.5,139.5 C 6.16667,139.5 12.8333,139.5 19.5,139.5C 19.5,146.167 19.5,152.833 19.5,159.5C 12.8333,159.5 6.16667,159.5 -0.5,159.5C -0.5,152.833 -0.5,146.167 -0.5,139.5 Z"/></g>
<g><path style="opacity:1" fill="#fefffe" d="M 19.5,139.5 C 26.1667,139.5 32.8333,139.5 39.5,139.5C 39.5,146.167 39.5,152.833 39.5,159.5C 32.8333,159.5 26.1667,159.5 19.5,159.5C 19.5,152.833 19.5,146.167 19.5,139.5 Z"/></g>
<g><path style="opacity:1" fill="#edeeed" d="M 39.5,139.5 C 46.1667,139.5 52.8333,139.5 59.5,139.5C 59.5,146.167 59.5,152.833 59.5,159.5C 52.8333,159.5 46.1667,159.5 39.5,159.5C 39.5,152.833 39.5,146.167 39.5,139.5 Z"/></g>
<g><path style="opacity:1" fill="#fefffe" d="M 59.5,139.5 C 66.1667,139.5 72.8333,139.5 79.5,139.5C 79.5,146.167 79.5,152.833 79.5,159.5C 72.8333,159.5 66.1667,159.5 59.5,159.5C 59.5,152.833 59.5,146.167 59.5,139.5 Z"/></g>
<g><path style="opacity:1" fill="#edeeed" d="M 79.5,139.5 C 86.1667,139.5 92.8333,139.5 99.5,139.5C 99.5,146.167 99.5,152.833 99.5,159.5C 92.8333,159.5 86.1667,159.5 79.5,159.5C 79.5,152.833 79.5,146.167 79.5,139.5 Z"/></g>
<g><path style="opacity:1" fill="#fefffe" d="M 99.5,139.5 C 106.167,139.5 112.833,139.5 119.5,139.5C 119.5,146.167 119.5,152.833 119.5,159.5C 112.833,159.5 106.167,159.5 99.5,159.5C 99.5,152.833 99.5,146.167 99.5,139.5 Z"/></g>
<g><path style="opacity:1" fill="#edeeed" d="M 119.5,139.5 C 126.167,139.5 132.833,139.5 139.5,139.5C 139.5,146.167 139.5,152.833 139.5,159.5C 132.833,159.5 126.167,159.5 119.5,159.5C 119.5,152.833 119.5,146.167 119.5,139.5 Z"/></g>
<g><path style="opacity:1" fill="#fefffe" d="M 139.5,139.5 C 146.167,139.5 152.833,139.5 159.5,139.5C 159.5,146.167 159.5,152.833 159.5,159.5C 152.833,159.5 146.167,159.5 139.5,159.5C 139.5,152.833 139.5,146.167 139.5,139.5 Z"/></g>
<g><path style="opacity:1" fill="#edeeed" d="M 159.5,139.5 C 166.167,139.5 172.833,139.5 179.5,139.5C 179.5,146.167 179.5,152.833 179.5,159.5C 172.833,159.5 166.167,159.5 159.5,159.5C 159.5,152.833 159.5,146.167 159.5,139.5 Z"/></g>
<g><path style="opacity:1" fill="#fefffe" d="M 179.5,139.5 C 186.167,139.5 192.833,139.5 199.5,139.5C 199.5,146.167 199.5,152.833 199.5,159.5C 192.833,159.5 186.167,159.5 179.5,159.5C 179.5,152.833 179.5,146.167 179.5,139.5 Z"/></g>
<g><path style="opacity:1" fill="#edeeed" d="M 199.5,139.5 C 206.167,139.5 212.833,139.5 219.5,139.5C 219.5,146.167 219.5,152.833 219.5,159.5C 212.833,159.5 206.167,159.5 199.5,159.5C 199.5,152.833 199.5,146.167 199.5,139.5 Z"/></g>
<g><path style="opacity:1" fill="#fefffe" d="M 219.5,139.5 C 226.167,139.5 232.833,139.5 239.5,139.5C 239.5,146.167 239.5,152.833 239.5,159.5C 232.833,159.5 226.167,159.5 219.5,159.5C 219.5,152.833 219.5,146.167 219.5,139.5 Z"/></g>
<g><path style="opacity:1" fill="#fefffe" d="M -0.5,159.5 C 6.16667,159.5 12.8333,159.5 19.5,159.5C 19.5,166.167 19.5,172.833 19.5,179.5C 12.8333,179.5 6.16667,179.5 -0.5,179.5C -0.5,172.833 -0.5,166.167 -0.5,159.5 Z"/></g>
<g><path style="opacity:1" fill="#edeeed" d="M 19.5,159.5 C 26.1667,159.5 32.8333,159.5 39.5,159.5C 39.5,166.167 39.5,172.833 39.5,179.5C 32.8333,179.5 26.1667,179.5 19.5,179.5C 19.5,172.833 19.5,166.167 19.5,159.5 Z"/></g>
<g><path style="opacity:1" fill="#fefffe" d="M 39.5,159.5 C 46.1667,159.5 52.8333,159.5 59.5,159.5C 59.5,166.167 59.5,172.833 59.5,179.5C 52.8333,179.5 46.1667,179.5 39.5,179.5C 39.5,172.833 39.5,166.167 39.5,159.5 Z"/></g>
<g><path style="opacity:1" fill="#edeeed" d="M 59.5,159.5 C 66.1667,159.5 72.8333,159.5 79.5,159.5C 79.5,166.167 79.5,172.833 79.5,179.5C 72.8333,179.5 66.1667,179.5 59.5,179.5C 59.5,172.833 59.5,166.167 59.5,159.5 Z"/></g>
<g><path style="opacity:1" fill="#fefffe" d="M 79.5,159.5 C 86.1667,159.5 92.8333,159.5 99.5,159.5C 99.5,166.167 99.5,172.833 99.5,179.5C 92.8333,179.5 86.1667,179.5 79.5,179.5C 79.5,172.833 79.5,166.167 79.5,159.5 Z"/></g>
<g><path style="opacity:1" fill="#edeeed" d="M 99.5,159.5 C 106.167,159.5 112.833,159.5 119.5,159.5C 119.5,166.167 119.5,172.833 119.5,179.5C 112.833,179.5 106.167,179.5 99.5,179.5C 99.5,172.833 99.5,166.167 99.5,159.5 Z"/></g>
<g><path style="opacity:1" fill="#fefffe" d="M 119.5,159.5 C 126.167,159.5 132.833,159.5 139.5,159.5C 139.5,166.167 139.5,172.833 139.5,179.5C 132.833,179.5 126.167,179.5 119.5,179.5C 119.5,172.833 119.5,166.167 119.5,159.5 Z"/></g>
<g><path style="opacity:1" fill="#edeeed" d="M 139.5,159.5 C 146.167,159.5 152.833,159.5 159.5,159.5C 159.5,166.167 159.5,172.833 159.5,179.5C 152.833,179.5 146.167,179.5 139.5,179.5C 139.5,172.833 139.5,166.167 139.5,159.5 Z"/></g>
<g><path style="opacity:1" fill="#fefffe" d="M 159.5,159.5 C 166.167,159.5 172.833,159.5 179.5,159.5C 179.5,166.167 179.5,172.833 179.5,179.5C 172.833,179.5 166.167,179.5 159.5,179.5C 159.5,172.833 159.5,166.167 159.5,159.5 Z"/></g>
<g><path style="opacity:1" fill="#edeeed" d="M 179.5,159.5 C 186.167,159.5 192.833,159.5 199.5,159.5C 199.5,166.167 199.5,172.833 199.5,179.5C 192.833,179.5 186.167,179.5 179.5,179.5C 179.5,172.833 179.5,166.167 179.5,159.5 Z"/></g>
<g><path style="opacity:1" fill="#fefffe" d="M 199.5,159.5 C 206.167,159.5 212.833,159.5 219.5,159.5C 219.5,166.167 219.5,172.833 219.5,179.5C 212.833,179.5 206.167,179.5 199.5,179.5C 199.5,172.833 199.5,166.167 199.5,159.5 Z"/></g>
<g><path style="opacity:1" fill="#edeeed" d="M -0.5,179.5 C 6.16667,179.5 12.8333,179.5 19.5,179.5C 19.5,186.167 19.5,192.833 19.5,199.5C 12.8333,199.5 6.16667,199.5 -0.5,199.5C -0.5,192.833 -0.5,186.167 -0.5,179.5 Z"/></g>
<g><path style="opacity:1" fill="#fefffe" d="M 19.5,179.5 C 26.1667,179.5 32.8333,179.5 39.5,179.5C 39.5,186.167 39.5,192.833 39.5,199.5C 32.8333,199.5 26.1667,199.5 19.5,199.5C 19.5,192.833 19.5,186.167 19.5,179.5 Z"/></g>
<g><path style="opacity:1" fill="#edeeed" d="M 39.5,179.5 C 46.1667,179.5 52.8333,179.5 59.5,179.5C 59.5,186.167 59.5,192.833 59.5,199.5C 52.8333,199.5 46.1667,199.5 39.5,199.5C 39.5,192.833 39.5,186.167 39.5,179.5 Z"/></g>
<g><path style="opacity:1" fill="#fefffe" d="M 59.5,179.5 C 66.1667,179.5 72.8333,179.5 79.5,179.5C 79.5,186.167 79.5,192.833 79.5,199.5C 72.8333,199.5 66.1667,199.5 59.5,199.5C 59.5,192.833 59.5,186.167 59.5,179.5 Z"/></g>
<g><path style="opacity:1" fill="#edeeed" d="M 79.5,179.5 C 86.1667,179.5 92.8333,179.5 99.5,179.5C 99.5,186.167 99.5,192.833 99.5,199.5C 92.8333,199.5 86.1667,199.5 79.5,199.5C 79.5,192.833 79.5,186.167 79.5,179.5 Z"/></g>
<g><path style="opacity:1" fill="#fefffe" d="M 99.5,179.5 C 106.167,179.5 112.833,179.5 119.5,179.5C 119.5,186.167 119.5,192.833 119.5,199.5C 112.833,199.5 106.167,199.5 99.5,199.5C 99.5,192.833 99.5,186.167 99.5,179.5 Z"/></g>
<g><path style="opacity:1" fill="#edeeed" d="M 119.5,179.5 C 126.167,179.5 132.833,179.5 139.5,179.5C 139.5,186.167 139.5,192.833 139.5,199.5C 132.833,199.5 126.167,199.5 119.5,199.5C 119.5,192.833 119.5,186.167 119.5,179.5 Z"/></g>
<g><path style="opacity:1" fill="#fefffe" d="M 139.5,179.5 C 146.167,179.5 152.833,179.5 159.5,179.5C 159.5,186.167 159.5,192.833 159.5,199.5C 152.833,199.5 146.167,199.5 139.5,199.5C 139.5,192.833 139.5,186.167 139.5,179.5 Z"/></g>
<g><path style="opacity:1" fill="#edeeed" d="M 159.5,179.5 C 166.167,179.5 172.833,179.5 179.5,179.5C 179.5,186.167 179.5,192.833 179.5,199.5C 172.833,199.5 166.167,199.5 159.5,199.5C 159.5,192.833 159.5,186.167 159.5,179.5 Z"/></g>
<g><path style="opacity:1" fill="#fefffe" d="M 179.5,179.5 C 186.167,179.5 192.833,179.5 199.5,179.5C 199.5,186.167 199.5,192.833 199.5,199.5C 192.833,199.5 186.167,199.5 179.5,199.5C 179.5,192.833 179.5,186.167 179.5,179.5 Z"/></g>
<g><path style="opacity:1" fill="#fefffe" d="M -0.5,199.5 C 6.16667,199.5 12.8333,199.5 19.5,199.5C 19.5,206.167 19.5,212.833 19.5,219.5C 12.8333,219.5 6.16667,219.5 -0.5,219.5C -0.5,212.833 -0.5,206.167 -0.5,199.5 Z"/></g>
<g><path style="opacity:1" fill="#edeeed" d="M 19.5,199.5 C 26.1667,199.5 32.8333,199.5 39.5,199.5C 39.5,206.167 39.5,212.833 39.5,219.5C 32.8333,219.5 26.1667,219.5 19.5,219.5C 19.5,212.833 19.5,206.167 19.5,199.5 Z"/></g>
<g><path style="opacity:1" fill="#fefffe" d="M 39.5,199.5 C 46.1667,199.5 52.8333,199.5 59.5,199.5C 59.5,206.167 59.5,212.833 59.5,219.5C 52.8333,219.5 46.1667,219.5 39.5,219.5C 39.5,212.833 39.5,206.167 39.5,199.5 Z"/></g>
<g><path style="opacity:1" fill="#edeeed" d="M 59.5,199.5 C 66.1667,199.5 72.8333,199.5 79.5,199.5C 79.5,206.167 79.5,212.833 79.5,219.5C 72.8333,219.5 66.1667,219.5 59.5,219.5C 59.5,212.833 59.5,206.167 59.5,199.5 Z"/></g>
<g><path style="opacity:1" fill="#fefffe" d="M 79.5,199.5 C 86.1667,199.5 92.8333,199.5 99.5,199.5C 99.5,206.167 99.5,212.833 99.5,219.5C 92.8333,219.5 86.1667,219.5 79.5,219.5C 79.5,212.833 79.5,206.167 79.5,199.5 Z"/></g>
<g><path style="opacity:1" fill="#edeeed" d="M 99.5,199.5 C 106.167,199.5 112.833,199.5 119.5,199.5C 119.5,206.167 119.5,212.833 119.5,219.5C 112.833,219.5 106.167,219.5 99.5,219.5C 99.5,212.833 99.5,206.167 99.5,199.5 Z"/></g>
<g><path style="opacity:1" fill="#fefffe" d="M 119.5,199.5 C 126.167,199.5 132.833,199.5 139.5,199.5C 139.5,206.167 139.5,212.833 139.5,219.5C 132.833,219.5 126.167,219.5 119.5,219.5C 119.5,212.833 119.5,206.167 119.5,199.5 Z"/></g>
<g><path style="opacity:1" fill="#edeeed" d="M 139.5,199.5 C 146.167,199.5 152.833,199.5 159.5,199.5C 159.5,206.167 159.5,212.833 159.5,219.5C 152.833,219.5 146.167,219.5 139.5,219.5C 139.5,212.833 139.5,206.167 139.5,199.5 Z"/></g>
<g><path style="opacity:1" fill="#ededed" d="M 219.5,159.5 C 226.167,159.5 232.833,159.5 239.5,159.5C 238.887,165.271 239.554,170.604 241.5,175.5C 220.231,185.764 202.564,200.431 188.5,219.5C 185.5,219.5 182.5,219.5 179.5,219.5C 179.5,212.833 179.5,206.167 179.5,199.5C 186.167,199.5 192.833,199.5 199.5,199.5C 199.5,192.833 199.5,186.167 199.5,179.5C 206.167,179.5 212.833,179.5 219.5,179.5C 219.5,172.833 219.5,166.167 219.5,159.5 Z"/></g>
<g><path style="opacity:1" fill="#edeeed" d="M -0.5,219.5 C 6.16667,219.5 12.8333,219.5 19.5,219.5C 19.5,226.167 19.5,232.833 19.5,239.5C 12.8333,239.5 6.16667,239.5 -0.5,239.5C -0.5,232.833 -0.5,226.167 -0.5,219.5 Z"/></g>
<g><path style="opacity:1" fill="#fefffe" d="M 19.5,219.5 C 26.1667,219.5 32.8333,219.5 39.5,219.5C 39.5,226.167 39.5,232.833 39.5,239.5C 32.8333,239.5 26.1667,239.5 19.5,239.5C 19.5,232.833 19.5,226.167 19.5,219.5 Z"/></g>
<g><path style="opacity:1" fill="#edeeed" d="M 39.5,219.5 C 46.1667,219.5 52.8333,219.5 59.5,219.5C 59.5,226.167 59.5,232.833 59.5,239.5C 52.8333,239.5 46.1667,239.5 39.5,239.5C 39.5,232.833 39.5,226.167 39.5,219.5 Z"/></g>
<g><path style="opacity:1" fill="#fefffe" d="M 59.5,219.5 C 66.1667,219.5 72.8333,219.5 79.5,219.5C 79.5,226.167 79.5,232.833 79.5,239.5C 72.8333,239.5 66.1667,239.5 59.5,239.5C 59.5,232.833 59.5,226.167 59.5,219.5 Z"/></g>
<g><path style="opacity:1" fill="#edeeed" d="M 79.5,219.5 C 86.1667,219.5 92.8333,219.5 99.5,219.5C 99.5,226.167 99.5,232.833 99.5,239.5C 92.8333,239.5 86.1667,239.5 79.5,239.5C 79.5,232.833 79.5,226.167 79.5,219.5 Z"/></g>
<g><path style="opacity:1" fill="#fefffe" d="M 99.5,219.5 C 106.167,219.5 112.833,219.5 119.5,219.5C 119.5,226.167 119.5,232.833 119.5,239.5C 112.833,239.5 106.167,239.5 99.5,239.5C 99.5,232.833 99.5,226.167 99.5,219.5 Z"/></g>
<g><path style="opacity:1" fill="#edeeed" d="M 119.5,219.5 C 126.167,219.5 132.833,219.5 139.5,219.5C 139.5,226.167 139.5,232.833 139.5,239.5C 132.833,239.5 126.167,239.5 119.5,239.5C 119.5,232.833 119.5,226.167 119.5,219.5 Z"/></g>
<g><path style="opacity:1" fill="#fefffe" d="M -0.5,239.5 C 6.16667,239.5 12.8333,239.5 19.5,239.5C 19.5,246.167 19.5,252.833 19.5,259.5C 12.8333,259.5 6.16667,259.5 -0.5,259.5C -0.5,252.833 -0.5,246.167 -0.5,239.5 Z"/></g>
<g><path style="opacity:1" fill="#edeeed" d="M 19.5,239.5 C 26.1667,239.5 32.8333,239.5 39.5,239.5C 39.5,246.167 39.5,252.833 39.5,259.5C 32.8333,259.5 26.1667,259.5 19.5,259.5C 19.5,252.833 19.5,246.167 19.5,239.5 Z"/></g>
<g><path style="opacity:1" fill="#fefffe" d="M 39.5,239.5 C 46.1667,239.5 52.8333,239.5 59.5,239.5C 59.5,246.167 59.5,252.833 59.5,259.5C 52.8333,259.5 46.1667,259.5 39.5,259.5C 39.5,252.833 39.5,246.167 39.5,239.5 Z"/></g>
<g><path style="opacity:1" fill="#edeeed" d="M 59.5,239.5 C 66.1667,239.5 72.8333,239.5 79.5,239.5C 79.5,246.167 79.5,252.833 79.5,259.5C 72.8333,259.5 66.1667,259.5 59.5,259.5C 59.5,252.833 59.5,246.167 59.5,239.5 Z"/></g>
<g><path style="opacity:1" fill="#fefffe" d="M 79.5,239.5 C 86.1667,239.5 92.8333,239.5 99.5,239.5C 99.5,246.167 99.5,252.833 99.5,259.5C 92.8333,259.5 86.1667,259.5 79.5,259.5C 79.5,252.833 79.5,246.167 79.5,239.5 Z"/></g>
<g><path style="opacity:1" fill="#edeeed" d="M 99.5,239.5 C 106.167,239.5 112.833,239.5 119.5,239.5C 119.5,246.167 119.5,252.833 119.5,259.5C 112.833,259.5 106.167,259.5 99.5,259.5C 99.5,252.833 99.5,246.167 99.5,239.5 Z"/></g>
<g><path style="opacity:1" fill="#fefffe" d="M 119.5,239.5 C 126.167,239.5 132.833,239.5 139.5,239.5C 139.5,246.167 139.5,252.833 139.5,259.5C 132.833,259.5 126.167,259.5 119.5,259.5C 119.5,252.833 119.5,246.167 119.5,239.5 Z"/></g>
<g><path style="opacity:1" fill="#ededed" d="M 694.5,219.5 C 696.167,219.5 697.833,219.5 699.5,219.5C 699.5,226.167 699.5,232.833 699.5,239.5C 706.167,239.5 712.833,239.5 719.5,239.5C 719.5,246.167 719.5,252.833 719.5,259.5C 712.833,259.5 706.167,259.5 699.5,259.5C 699.5,266.167 699.5,272.833 699.5,279.5C 706.167,279.5 712.833,279.5 719.5,279.5C 719.5,286.167 719.5,292.833 719.5,299.5C 712.833,299.5 706.167,299.5 699.5,299.5C 699.5,306.167 699.5,312.833 699.5,319.5C 706.167,319.5 712.833,319.5 719.5,319.5C 719.5,326.167 719.5,332.833 719.5,339.5C 712.833,339.5 706.167,339.5 699.5,339.5C 699.5,346.167 699.5,352.833 699.5,359.5C 695.731,359.244 692.064,359.577 688.5,360.5C 697.363,313.768 699.363,266.768 694.5,219.5 Z"/></g>
<g><path style="opacity:1" fill="#696969" d="M 591.5,236.5 C 592.167,239.167 592.833,241.833 593.5,244.5C 593.013,245.473 592.513,246.473 592,247.5C 591.501,243.848 591.335,240.182 591.5,236.5 Z"/></g>
<g><path style="opacity:1" fill="#edeeed" d="M -0.5,259.5 C 6.16667,259.5 12.8333,259.5 19.5,259.5C 19.5,266.167 19.5,272.833 19.5,279.5C 12.8333,279.5 6.16667,279.5 -0.5,279.5C -0.5,272.833 -0.5,266.167 -0.5,259.5 Z"/></g>
<g><path style="opacity:1" fill="#fefffe" d="M 19.5,259.5 C 26.1667,259.5 32.8333,259.5 39.5,259.5C 39.5,266.167 39.5,272.833 39.5,279.5C 32.8333,279.5 26.1667,279.5 19.5,279.5C 19.5,272.833 19.5,266.167 19.5,259.5 Z"/></g>
<g><path style="opacity:1" fill="#edeeed" d="M 39.5,259.5 C 46.1667,259.5 52.8333,259.5 59.5,259.5C 59.5,266.167 59.5,272.833 59.5,279.5C 52.8333,279.5 46.1667,279.5 39.5,279.5C 39.5,272.833 39.5,266.167 39.5,259.5 Z"/></g>
<g><path style="opacity:1" fill="#fefffe" d="M 59.5,259.5 C 66.1667,259.5 72.8333,259.5 79.5,259.5C 79.5,266.167 79.5,272.833 79.5,279.5C 72.8333,279.5 66.1667,279.5 59.5,279.5C 59.5,272.833 59.5,266.167 59.5,259.5 Z"/></g>
<g><path style="opacity:1" fill="#edeeed" d="M 79.5,259.5 C 86.1667,259.5 92.8333,259.5 99.5,259.5C 99.5,266.167 99.5,272.833 99.5,279.5C 92.8333,279.5 86.1667,279.5 79.5,279.5C 79.5,272.833 79.5,266.167 79.5,259.5 Z"/></g>
<g><path style="opacity:1" fill="#fefffe" d="M 99.5,259.5 C 106.167,259.5 112.833,259.5 119.5,259.5C 119.5,266.167 119.5,272.833 119.5,279.5C 112.833,279.5 106.167,279.5 99.5,279.5C 99.5,272.833 99.5,266.167 99.5,259.5 Z"/></g>
<g><path style="opacity:1" fill="#edeeed" d="M 119.5,259.5 C 126.167,259.5 132.833,259.5 139.5,259.5C 139.5,266.167 139.5,272.833 139.5,279.5C 132.833,279.5 126.167,279.5 119.5,279.5C 119.5,272.833 119.5,266.167 119.5,259.5 Z"/></g>
<g><path style="opacity:1" fill="#fefffe" d="M 719.5,259.5 C 719.5,266.167 719.5,272.833 719.5,279.5C 712.833,279.5 706.167,279.5 699.5,279.5C 699.5,272.833 699.5,266.167 699.5,259.5C 706.167,259.5 712.833,259.5 719.5,259.5 Z"/></g>
<g><path style="opacity:1" fill="#fefffe" d="M -0.5,279.5 C 6.16667,279.5 12.8333,279.5 19.5,279.5C 19.5,286.167 19.5,292.833 19.5,299.5C 12.8333,299.5 6.16667,299.5 -0.5,299.5C -0.5,292.833 -0.5,286.167 -0.5,279.5 Z"/></g>
<g><path style="opacity:1" fill="#edeeed" d="M 19.5,279.5 C 26.1667,279.5 32.8333,279.5 39.5,279.5C 39.5,286.167 39.5,292.833 39.5,299.5C 32.8333,299.5 26.1667,299.5 19.5,299.5C 19.5,292.833 19.5,286.167 19.5,279.5 Z"/></g>
<g><path style="opacity:1" fill="#fefffe" d="M 39.5,279.5 C 46.1667,279.5 52.8333,279.5 59.5,279.5C 59.5,286.167 59.5,292.833 59.5,299.5C 52.8333,299.5 46.1667,299.5 39.5,299.5C 39.5,292.833 39.5,286.167 39.5,279.5 Z"/></g>
<g><path style="opacity:1" fill="#edeeed" d="M 59.5,279.5 C 66.1667,279.5 72.8333,279.5 79.5,279.5C 79.5,286.167 79.5,292.833 79.5,299.5C 72.8333,299.5 66.1667,299.5 59.5,299.5C 59.5,292.833 59.5,286.167 59.5,279.5 Z"/></g>
<g><path style="opacity:1" fill="#fefffe" d="M 79.5,279.5 C 86.1667,279.5 92.8333,279.5 99.5,279.5C 99.5,286.167 99.5,292.833 99.5,299.5C 92.8333,299.5 86.1667,299.5 79.5,299.5C 79.5,292.833 79.5,286.167 79.5,279.5 Z"/></g>
<g><path style="opacity:1" fill="#edeeed" d="M 99.5,279.5 C 106.167,279.5 112.833,279.5 119.5,279.5C 119.5,286.167 119.5,292.833 119.5,299.5C 112.833,299.5 106.167,299.5 99.5,299.5C 99.5,292.833 99.5,286.167 99.5,279.5 Z"/></g>
<g><path style="opacity:1" fill="#fefffe" d="M 119.5,279.5 C 126.167,279.5 132.833,279.5 139.5,279.5C 139.5,286.167 139.5,292.833 139.5,299.5C 132.833,299.5 126.167,299.5 119.5,299.5C 119.5,292.833 119.5,286.167 119.5,279.5 Z"/></g>
<g><path style="opacity:1" fill="#edeeed" d="M -0.5,299.5 C 6.16667,299.5 12.8333,299.5 19.5,299.5C 19.5,306.167 19.5,312.833 19.5,319.5C 12.8333,319.5 6.16667,319.5 -0.5,319.5C -0.5,312.833 -0.5,306.167 -0.5,299.5 Z"/></g>
<g><path style="opacity:1" fill="#fefffe" d="M 19.5,299.5 C 26.1667,299.5 32.8333,299.5 39.5,299.5C 39.5,306.167 39.5,312.833 39.5,319.5C 32.8333,319.5 26.1667,319.5 19.5,319.5C 19.5,312.833 19.5,306.167 19.5,299.5 Z"/></g>
<g><path style="opacity:1" fill="#edeeed" d="M 39.5,299.5 C 46.1667,299.5 52.8333,299.5 59.5,299.5C 59.5,306.167 59.5,312.833 59.5,319.5C 52.8333,319.5 46.1667,319.5 39.5,319.5C 39.5,312.833 39.5,306.167 39.5,299.5 Z"/></g>
<g><path style="opacity:1" fill="#fefffe" d="M 59.5,299.5 C 66.1667,299.5 72.8333,299.5 79.5,299.5C 79.5,306.167 79.5,312.833 79.5,319.5C 72.8333,319.5 66.1667,319.5 59.5,319.5C 59.5,312.833 59.5,306.167 59.5,299.5 Z"/></g>
<g><path style="opacity:1" fill="#edeeed" d="M 79.5,299.5 C 86.1667,299.5 92.8333,299.5 99.5,299.5C 99.5,306.167 99.5,312.833 99.5,319.5C 92.8333,319.5 86.1667,319.5 79.5,319.5C 79.5,312.833 79.5,306.167 79.5,299.5 Z"/></g>
<g><path style="opacity:1" fill="#fefffe" d="M 99.5,299.5 C 106.167,299.5 112.833,299.5 119.5,299.5C 119.5,306.167 119.5,312.833 119.5,319.5C 112.833,319.5 106.167,319.5 99.5,319.5C 99.5,312.833 99.5,306.167 99.5,299.5 Z"/></g>
<g><path style="opacity:1" fill="#edeeed" d="M 119.5,299.5 C 126.167,299.5 132.833,299.5 139.5,299.5C 139.5,306.167 139.5,312.833 139.5,319.5C 132.833,319.5 126.167,319.5 119.5,319.5C 119.5,312.833 119.5,306.167 119.5,299.5 Z"/></g>
<g><path style="opacity:1" fill="#fefffe" d="M 139.5,299.5 C 146.167,299.5 152.833,299.5 159.5,299.5C 159.5,306.167 159.5,312.833 159.5,319.5C 152.833,319.5 146.167,319.5 139.5,319.5C 139.5,312.833 139.5,306.167 139.5,299.5 Z"/></g>
<g><path style="opacity:1" fill="#fefffe" d="M 719.5,299.5 C 719.5,306.167 719.5,312.833 719.5,319.5C 712.833,319.5 706.167,319.5 699.5,319.5C 699.5,312.833 699.5,306.167 699.5,299.5C 706.167,299.5 712.833,299.5 719.5,299.5 Z"/></g>
<g><path style="opacity:1" fill="#fefffe" d="M -0.5,319.5 C 6.16667,319.5 12.8333,319.5 19.5,319.5C 19.5,326.167 19.5,332.833 19.5,339.5C 12.8333,339.5 6.16667,339.5 -0.5,339.5C -0.5,332.833 -0.5,326.167 -0.5,319.5 Z"/></g>
<g><path style="opacity:1" fill="#edeeed" d="M 19.5,319.5 C 26.1667,319.5 32.8333,319.5 39.5,319.5C 39.5,326.167 39.5,332.833 39.5,339.5C 32.8333,339.5 26.1667,339.5 19.5,339.5C 19.5,332.833 19.5,326.167 19.5,319.5 Z"/></g>
<g><path style="opacity:1" fill="#fefffe" d="M 39.5,319.5 C 46.1667,319.5 52.8333,319.5 59.5,319.5C 59.5,326.167 59.5,332.833 59.5,339.5C 52.8333,339.5 46.1667,339.5 39.5,339.5C 39.5,332.833 39.5,326.167 39.5,319.5 Z"/></g>
<g><path style="opacity:1" fill="#edeeed" d="M 59.5,319.5 C 66.1667,319.5 72.8333,319.5 79.5,319.5C 79.5,326.167 79.5,332.833 79.5,339.5C 72.8333,339.5 66.1667,339.5 59.5,339.5C 59.5,332.833 59.5,326.167 59.5,319.5 Z"/></g>
<g><path style="opacity:1" fill="#fefffe" d="M 79.5,319.5 C 86.1667,319.5 92.8333,319.5 99.5,319.5C 99.5,326.167 99.5,332.833 99.5,339.5C 92.8333,339.5 86.1667,339.5 79.5,339.5C 79.5,332.833 79.5,326.167 79.5,319.5 Z"/></g>
<g><path style="opacity:1" fill="#edeeed" d="M 99.5,319.5 C 106.167,319.5 112.833,319.5 119.5,319.5C 119.5,326.167 119.5,332.833 119.5,339.5C 112.833,339.5 106.167,339.5 99.5,339.5C 99.5,332.833 99.5,326.167 99.5,319.5 Z"/></g>
<g><path style="opacity:1" fill="#fefffe" d="M 119.5,319.5 C 126.167,319.5 132.833,319.5 139.5,319.5C 139.5,326.167 139.5,332.833 139.5,339.5C 132.833,339.5 126.167,339.5 119.5,339.5C 119.5,332.833 119.5,326.167 119.5,319.5 Z"/></g>
<g><path style="opacity:1" fill="#edeeed" d="M -0.5,339.5 C 6.16667,339.5 12.8333,339.5 19.5,339.5C 19.5,346.167 19.5,352.833 19.5,359.5C 12.8333,359.5 6.16667,359.5 -0.5,359.5C -0.5,352.833 -0.5,346.167 -0.5,339.5 Z"/></g>
<g><path style="opacity:1" fill="#fefffe" d="M 19.5,339.5 C 26.1667,339.5 32.8333,339.5 39.5,339.5C 39.5,346.167 39.5,352.833 39.5,359.5C 32.8333,359.5 26.1667,359.5 19.5,359.5C 19.5,352.833 19.5,346.167 19.5,339.5 Z"/></g>
<g><path style="opacity:1" fill="#edeeed" d="M 39.5,339.5 C 46.1667,339.5 52.8333,339.5 59.5,339.5C 59.5,346.167 59.5,352.833 59.5,359.5C 52.8333,359.5 46.1667,359.5 39.5,359.5C 39.5,352.833 39.5,346.167 39.5,339.5 Z"/></g>
<g><path style="opacity:1" fill="#fefffe" d="M 59.5,339.5 C 66.1667,339.5 72.8333,339.5 79.5,339.5C 79.5,346.167 79.5,352.833 79.5,359.5C 72.8333,359.5 66.1667,359.5 59.5,359.5C 59.5,352.833 59.5,346.167 59.5,339.5 Z"/></g>
<g><path style="opacity:1" fill="#edeeed" d="M 79.5,339.5 C 86.1667,339.5 92.8333,339.5 99.5,339.5C 99.5,346.167 99.5,352.833 99.5,359.5C 92.8333,359.5 86.1667,359.5 79.5,359.5C 79.5,352.833 79.5,346.167 79.5,339.5 Z"/></g>
<g><path style="opacity:1" fill="#fefffe" d="M 99.5,339.5 C 106.167,339.5 112.833,339.5 119.5,339.5C 119.5,346.167 119.5,352.833 119.5,359.5C 112.833,359.5 106.167,359.5 99.5,359.5C 99.5,352.833 99.5,346.167 99.5,339.5 Z"/></g>
<g><path style="opacity:1" fill="#edeeed" d="M 119.5,339.5 C 126.167,339.5 132.833,339.5 139.5,339.5C 139.5,346.167 139.5,352.833 139.5,359.5C 132.833,359.5 126.167,359.5 119.5,359.5C 119.5,352.833 119.5,346.167 119.5,339.5 Z"/></g>
<g><path style="opacity:1" fill="#fefffe" d="M 719.5,339.5 C 719.5,346.167 719.5,352.833 719.5,359.5C 712.833,359.5 706.167,359.5 699.5,359.5C 699.5,352.833 699.5,346.167 699.5,339.5C 706.167,339.5 712.833,339.5 719.5,339.5 Z"/></g>
<g><path style="opacity:1" fill="#fefffe" d="M -0.5,359.5 C 6.16667,359.5 12.8333,359.5 19.5,359.5C 19.5,366.167 19.5,372.833 19.5,379.5C 12.8333,379.5 6.16667,379.5 -0.5,379.5C -0.5,372.833 -0.5,366.167 -0.5,359.5 Z"/></g>
<g><path style="opacity:1" fill="#edeeed" d="M 19.5,359.5 C 26.1667,359.5 32.8333,359.5 39.5,359.5C 39.5,366.167 39.5,372.833 39.5,379.5C 32.8333,379.5 26.1667,379.5 19.5,379.5C 19.5,372.833 19.5,366.167 19.5,359.5 Z"/></g>
<g><path style="opacity:1" fill="#fefffe" d="M 39.5,359.5 C 46.1667,359.5 52.8333,359.5 59.5,359.5C 59.5,366.167 59.5,372.833 59.5,379.5C 52.8333,379.5 46.1667,379.5 39.5,379.5C 39.5,372.833 39.5,366.167 39.5,359.5 Z"/></g>
<g><path style="opacity:1" fill="#edeeed" d="M 59.5,359.5 C 66.1667,359.5 72.8333,359.5 79.5,359.5C 79.5,366.167 79.5,372.833 79.5,379.5C 72.8333,379.5 66.1667,379.5 59.5,379.5C 59.5,372.833 59.5,366.167 59.5,359.5 Z"/></g>
<g><path style="opacity:1" fill="#fefffe" d="M 79.5,359.5 C 86.1667,359.5 92.8333,359.5 99.5,359.5C 99.5,366.167 99.5,372.833 99.5,379.5C 92.8333,379.5 86.1667,379.5 79.5,379.5C 79.5,372.833 79.5,366.167 79.5,359.5 Z"/></g>
<g><path style="opacity:1" fill="#edeeed" d="M 99.5,359.5 C 106.167,359.5 112.833,359.5 119.5,359.5C 119.5,366.167 119.5,372.833 119.5,379.5C 112.833,379.5 106.167,379.5 99.5,379.5C 99.5,372.833 99.5,366.167 99.5,359.5 Z"/></g>
<g><path style="opacity:1" fill="#f5f5f5" d="M 159.5,199.5 C 166.167,199.5 172.833,199.5 179.5,199.5C 179.5,206.167 179.5,212.833 179.5,219.5C 182.5,219.5 185.5,219.5 188.5,219.5C 173.558,242.573 165.058,267.907 163,295.5C 163.247,380.591 190.58,455.591 245,520.5C 245.667,521.5 245.667,522.5 245,523.5C 240.462,530.569 237.629,538.236 236.5,546.5C 235.515,550.634 235.182,554.968 235.5,559.5C 230.167,559.5 224.833,559.5 219.5,559.5C 219.5,566.167 219.5,572.833 219.5,579.5C 226.167,579.5 232.833,579.5 239.5,579.5C 239.5,586.167 239.5,592.833 239.5,599.5C 244.167,599.5 248.833,599.5 253.5,599.5C 260.889,609.188 269.555,617.522 279.5,624.5C 279.5,629.5 279.5,634.5 279.5,639.5C 286.167,639.5 292.833,639.5 299.5,639.5C 299.5,646.167 299.5,652.833 299.5,659.5C 306.167,659.5 312.833,659.5 319.5,659.5C 319.5,666.167 319.5,672.833 319.5,679.5C 319.5,686.167 319.5,692.833 319.5,699.5C 312.833,699.5 306.167,699.5 299.5,699.5C 299.5,692.833 299.5,686.167 299.5,679.5C 292.833,679.5 286.167,679.5 279.5,679.5C 279.5,686.167 279.5,692.833 279.5,699.5C 272.833,699.5 266.167,699.5 259.5,699.5C 259.5,692.833 259.5,686.167 259.5,679.5C 252.833,679.5 246.167,679.5 239.5,679.5C 239.5,686.167 239.5,692.833 239.5,699.5C 232.833,699.5 226.167,699.5 219.5,699.5C 219.5,692.833 219.5,686.167 219.5,679.5C 212.833,679.5 206.167,679.5 199.5,679.5C 199.5,686.167 199.5,692.833 199.5,699.5C 192.833,699.5 186.167,699.5 179.5,699.5C 179.5,692.833 179.5,686.167 179.5,679.5C 172.833,679.5 166.167,679.5 159.5,679.5C 159.5,686.167 159.5,692.833 159.5,699.5C 152.833,699.5 146.167,699.5 139.5,699.5C 139.5,692.833 139.5,686.167 139.5,679.5C 132.833,679.5 126.167,679.5 119.5,679.5C 119.5,672.833 119.5,666.167 119.5,659.5C 119.5,652.833 119.5,646.167 119.5,639.5C 119.5,632.833 119.5,626.167 119.5,619.5C 119.5,612.833 119.5,606.167 119.5,599.5C 119.5,592.833 119.5,586.167 119.5,579.5C 119.5,572.833 119.5,566.167 119.5,559.5C 119.5,552.833 119.5,546.167 119.5,539.5C 119.5,532.833 119.5,526.167 119.5,519.5C 119.5,512.833 119.5,506.167 119.5,499.5C 119.5,492.833 119.5,486.167 119.5,479.5C 119.5,472.833 119.5,466.167 119.5,459.5C 119.5,452.833 119.5,446.167 119.5,439.5C 119.5,432.833 119.5,426.167 119.5,419.5C 119.5,412.833 119.5,406.167 119.5,399.5C 119.5,392.833 119.5,386.167 119.5,379.5C 119.5,372.833 119.5,366.167 119.5,359.5C 126.167,359.5 132.833,359.5 139.5,359.5C 139.5,352.833 139.5,346.167 139.5,339.5C 139.5,332.833 139.5,326.167 139.5,319.5C 146.167,319.5 152.833,319.5 159.5,319.5C 159.5,312.833 159.5,306.167 159.5,299.5C 152.833,299.5 146.167,299.5 139.5,299.5C 139.5,292.833 139.5,286.167 139.5,279.5C 139.5,272.833 139.5,266.167 139.5,259.5C 139.5,252.833 139.5,246.167 139.5,239.5C 139.5,232.833 139.5,226.167 139.5,219.5C 146.167,219.5 152.833,219.5 159.5,219.5C 159.5,212.833 159.5,206.167 159.5,199.5 Z"/></g>
<g><path style="opacity:1" fill="#f4f4f4" d="M 699.5,359.5 C 706.167,359.5 712.833,359.5 719.5,359.5C 719.5,366.167 719.5,372.833 719.5,379.5C 726.167,379.5 732.833,379.5 739.5,379.5C 739.5,386.167 739.5,392.833 739.5,399.5C 746.167,399.5 752.833,399.5 759.5,399.5C 759.5,406.167 759.5,412.833 759.5,419.5C 766.167,419.5 772.833,419.5 779.5,419.5C 779.5,426.167 779.5,432.833 779.5,439.5C 786.167,439.5 792.833,439.5 799.5,439.5C 799.5,446.167 799.5,452.833 799.5,459.5C 806.167,459.5 812.833,459.5 819.5,459.5C 819.5,466.167 819.5,472.833 819.5,479.5C 826.167,479.5 832.833,479.5 839.5,479.5C 839.5,486.167 839.5,492.833 839.5,499.5C 846.167,499.5 852.833,499.5 859.5,499.5C 859.5,546.167 859.5,592.833 859.5,639.5C 852.833,639.5 846.167,639.5 839.5,639.5C 839.5,632.833 839.5,626.167 839.5,619.5C 832.833,619.5 826.167,619.5 819.5,619.5C 819.5,612.833 819.5,606.167 819.5,599.5C 812.833,599.5 806.167,599.5 799.5,599.5C 799.5,592.833 799.5,586.167 799.5,579.5C 792.833,579.5 786.167,579.5 779.5,579.5C 779.5,572.833 779.5,566.167 779.5,559.5C 772.833,559.5 766.167,559.5 759.5,559.5C 759.5,552.833 759.5,546.167 759.5,539.5C 752.833,539.5 746.167,539.5 739.5,539.5C 739.5,532.833 739.5,526.167 739.5,519.5C 732.833,519.5 726.167,519.5 719.5,519.5C 719.5,512.833 719.5,506.167 719.5,499.5C 712.833,499.5 706.167,499.5 699.5,499.5C 699.5,492.833 699.5,486.167 699.5,479.5C 692.833,479.5 686.167,479.5 679.5,479.5C 679.5,472.833 679.5,466.167 679.5,459.5C 672.833,459.5 666.167,459.5 659.5,459.5C 659.5,466.167 659.5,472.833 659.5,479.5C 653.833,479.5 648.167,479.5 642.5,479.5C 664.128,442.285 679.461,402.618 688.5,360.5C 692.064,359.577 695.731,359.244 699.5,359.5 Z"/></g>
<g><path style="opacity:1" fill="#edeeed" d="M -0.5,379.5 C 6.16667,379.5 12.8333,379.5 19.5,379.5C 19.5,386.167 19.5,392.833 19.5,399.5C 12.8333,399.5 6.16667,399.5 -0.5,399.5C -0.5,392.833 -0.5,386.167 -0.5,379.5 Z"/></g>
<g><path style="opacity:1" fill="#fefffe" d="M 19.5,379.5 C 26.1667,379.5 32.8333,379.5 39.5,379.5C 39.5,386.167 39.5,392.833 39.5,399.5C 32.8333,399.5 26.1667,399.5 19.5,399.5C 19.5,392.833 19.5,386.167 19.5,379.5 Z"/></g>
<g><path style="opacity:1" fill="#edeeed" d="M 39.5,379.5 C 46.1667,379.5 52.8333,379.5 59.5,379.5C 59.5,386.167 59.5,392.833 59.5,399.5C 52.8333,399.5 46.1667,399.5 39.5,399.5C 39.5,392.833 39.5,386.167 39.5,379.5 Z"/></g>
<g><path style="opacity:1" fill="#fefffe" d="M 59.5,379.5 C 66.1667,379.5 72.8333,379.5 79.5,379.5C 79.5,386.167 79.5,392.833 79.5,399.5C 72.8333,399.5 66.1667,399.5 59.5,399.5C 59.5,392.833 59.5,386.167 59.5,379.5 Z"/></g>
<g><path style="opacity:1" fill="#edeeed" d="M 79.5,379.5 C 86.1667,379.5 92.8333,379.5 99.5,379.5C 99.5,386.167 99.5,392.833 99.5,399.5C 92.8333,399.5 86.1667,399.5 79.5,399.5C 79.5,392.833 79.5,386.167 79.5,379.5 Z"/></g>
<g><path style="opacity:1" fill="#fefffe" d="M 99.5,379.5 C 106.167,379.5 112.833,379.5 119.5,379.5C 119.5,386.167 119.5,392.833 119.5,399.5C 112.833,399.5 106.167,399.5 99.5,399.5C 99.5,392.833 99.5,386.167 99.5,379.5 Z"/></g>
<g><path style="opacity:1" fill="#020202" d="M 443.5,382.5 C 457.215,382.738 461.715,389.405 457,402.5C 449.18,446.447 438.847,489.78 426,532.5C 423.644,539.517 418.811,542.35 411.5,541C 405.214,538.15 402.714,533.316 404,526.5C 417.984,481.564 428.984,435.897 437,389.5C 438.018,385.985 440.185,383.652 443.5,382.5 Z"/></g>
<g><path style="opacity:1" fill="#fefffe" d="M -0.5,399.5 C 6.16667,399.5 12.8333,399.5 19.5,399.5C 19.5,406.167 19.5,412.833 19.5,419.5C 12.8333,419.5 6.16667,419.5 -0.5,419.5C -0.5,412.833 -0.5,406.167 -0.5,399.5 Z"/></g>
<g><path style="opacity:1" fill="#edeeed" d="M 19.5,399.5 C 26.1667,399.5 32.8333,399.5 39.5,399.5C 39.5,406.167 39.5,412.833 39.5,419.5C 32.8333,419.5 26.1667,419.5 19.5,419.5C 19.5,412.833 19.5,406.167 19.5,399.5 Z"/></g>
<g><path style="opacity:1" fill="#fefffe" d="M 39.5,399.5 C 46.1667,399.5 52.8333,399.5 59.5,399.5C 59.5,406.167 59.5,412.833 59.5,419.5C 52.8333,419.5 46.1667,419.5 39.5,419.5C 39.5,412.833 39.5,406.167 39.5,399.5 Z"/></g>
<g><path style="opacity:1" fill="#edeeed" d="M 59.5,399.5 C 66.1667,399.5 72.8333,399.5 79.5,399.5C 79.5,406.167 79.5,412.833 79.5,419.5C 72.8333,419.5 66.1667,419.5 59.5,419.5C 59.5,412.833 59.5,406.167 59.5,399.5 Z"/></g>
<g><path style="opacity:1" fill="#fefffe" d="M 79.5,399.5 C 86.1667,399.5 92.8333,399.5 99.5,399.5C 99.5,406.167 99.5,412.833 99.5,419.5C 92.8333,419.5 86.1667,419.5 79.5,419.5C 79.5,412.833 79.5,406.167 79.5,399.5 Z"/></g>
<g><path style="opacity:1" fill="#edeeed" d="M 99.5,399.5 C 106.167,399.5 112.833,399.5 119.5,399.5C 119.5,406.167 119.5,412.833 119.5,419.5C 112.833,419.5 106.167,419.5 99.5,419.5C 99.5,412.833 99.5,406.167 99.5,399.5 Z"/></g>
<g><path style="opacity:1" fill="#fefffe" d="M 679.5,399.5 C 686.167,399.5 692.833,399.5 699.5,399.5C 699.5,406.167 699.5,412.833 699.5,419.5C 692.833,419.5 686.167,419.5 679.5,419.5C 679.5,412.833 679.5,406.167 679.5,399.5 Z"/></g>
<g><path style="opacity:1" fill="#040404" d="M 357.5,417.5 C 369.413,417.254 374.413,423.087 372.5,435C 371.178,465.705 368.011,496.205 363,526.5C 357.587,535.648 350.92,536.648 343,529.5C 341.943,526.793 341.443,523.96 341.5,521C 346.166,489.68 348.999,458.18 350,426.5C 351.642,422.7 354.142,419.7 357.5,417.5 Z"/></g>
<g><path style="opacity:1" fill="#edeeed" d="M -0.5,419.5 C 6.16667,419.5 12.8333,419.5 19.5,419.5C 19.5,426.167 19.5,432.833 19.5,439.5C 12.8333,439.5 6.16667,439.5 -0.5,439.5C -0.5,432.833 -0.5,426.167 -0.5,419.5 Z"/></g>
<g><path style="opacity:1" fill="#fefffe" d="M 19.5,419.5 C 26.1667,419.5 32.8333,419.5 39.5,419.5C 39.5,426.167 39.5,432.833 39.5,439.5C 32.8333,439.5 26.1667,439.5 19.5,439.5C 19.5,432.833 19.5,426.167 19.5,419.5 Z"/></g>
<g><path style="opacity:1" fill="#edeeed" d="M 39.5,419.5 C 46.1667,419.5 52.8333,419.5 59.5,419.5C 59.5,426.167 59.5,432.833 59.5,439.5C 52.8333,439.5 46.1667,439.5 39.5,439.5C 39.5,432.833 39.5,426.167 39.5,419.5 Z"/></g>
<g><path style="opacity:1" fill="#fefffe" d="M 59.5,419.5 C 66.1667,419.5 72.8333,419.5 79.5,419.5C 79.5,426.167 79.5,432.833 79.5,439.5C 72.8333,439.5 66.1667,439.5 59.5,439.5C 59.5,432.833 59.5,426.167 59.5,419.5 Z"/></g>
<g><path style="opacity:1" fill="#edeeed" d="M 79.5,419.5 C 86.1667,419.5 92.8333,419.5 99.5,419.5C 99.5,426.167 99.5,432.833 99.5,439.5C 92.8333,439.5 86.1667,439.5 79.5,439.5C 79.5,432.833 79.5,426.167 79.5,419.5 Z"/></g>
<g><path style="opacity:1" fill="#fefffe" d="M 99.5,419.5 C 106.167,419.5 112.833,419.5 119.5,419.5C 119.5,426.167 119.5,432.833 119.5,439.5C 112.833,439.5 106.167,439.5 99.5,439.5C 99.5,432.833 99.5,426.167 99.5,419.5 Z"/></g>
<g><path style="opacity:1" fill="#030303" d="M 507.5,431.5 C 518.845,430.347 524.012,435.347 523,446.5C 512.06,476.043 498.726,504.377 483,531.5C 480.376,535.248 477.876,539.081 475.5,543C 462.833,548.324 456.666,544.157 457,530.5C 466.428,515.316 475.094,499.649 483,483.5C 489.667,467.5 496.333,451.5 503,435.5C 504.397,433.93 505.897,432.596 507.5,431.5 Z"/></g>
<g><path style="opacity:1" fill="#fefffe" d="M -0.5,439.5 C 6.16667,439.5 12.8333,439.5 19.5,439.5C 19.5,446.167 19.5,452.833 19.5,459.5C 12.8333,459.5 6.16667,459.5 -0.5,459.5C -0.5,452.833 -0.5,446.167 -0.5,439.5 Z"/></g>
<g><path style="opacity:1" fill="#edeeed" d="M 19.5,439.5 C 26.1667,439.5 32.8333,439.5 39.5,439.5C 39.5,446.167 39.5,452.833 39.5,459.5C 32.8333,459.5 26.1667,459.5 19.5,459.5C 19.5,452.833 19.5,446.167 19.5,439.5 Z"/></g>
<g><path style="opacity:1" fill="#fefffe" d="M 39.5,439.5 C 46.1667,439.5 52.8333,439.5 59.5,439.5C 59.5,446.167 59.5,452.833 59.5,459.5C 52.8333,459.5 46.1667,459.5 39.5,459.5C 39.5,452.833 39.5,446.167 39.5,439.5 Z"/></g>
<g><path style="opacity:1" fill="#edeeed" d="M 59.5,439.5 C 66.1667,439.5 72.8333,439.5 79.5,439.5C 79.5,446.167 79.5,452.833 79.5,459.5C 72.8333,459.5 66.1667,459.5 59.5,459.5C 59.5,452.833 59.5,446.167 59.5,439.5 Z"/></g>
<g><path style="opacity:1" fill="#fefffe" d="M 79.5,439.5 C 86.1667,439.5 92.8333,439.5 99.5,439.5C 99.5,446.167 99.5,452.833 99.5,459.5C 92.8333,459.5 86.1667,459.5 79.5,459.5C 79.5,452.833 79.5,446.167 79.5,439.5 Z"/></g>
<g><path style="opacity:1" fill="#edeeed" d="M 99.5,439.5 C 106.167,439.5 112.833,439.5 119.5,439.5C 119.5,446.167 119.5,452.833 119.5,459.5C 112.833,459.5 106.167,459.5 99.5,459.5C 99.5,452.833 99.5,446.167 99.5,439.5 Z"/></g>
<g><path style="opacity:1" fill="#edeeed" d="M -0.5,459.5 C 6.16667,459.5 12.8333,459.5 19.5,459.5C 19.5,466.167 19.5,472.833 19.5,479.5C 12.8333,479.5 6.16667,479.5 -0.5,479.5C -0.5,472.833 -0.5,466.167 -0.5,459.5 Z"/></g>
<g><path style="opacity:1" fill="#fefffe" d="M 19.5,459.5 C 26.1667,459.5 32.8333,459.5 39.5,459.5C 39.5,466.167 39.5,472.833 39.5,479.5C 32.8333,479.5 26.1667,479.5 19.5,479.5C 19.5,472.833 19.5,466.167 19.5,459.5 Z"/></g>
<g><path style="opacity:1" fill="#edeeed" d="M 39.5,459.5 C 46.1667,459.5 52.8333,459.5 59.5,459.5C 59.5,466.167 59.5,472.833 59.5,479.5C 52.8333,479.5 46.1667,479.5 39.5,479.5C 39.5,472.833 39.5,466.167 39.5,459.5 Z"/></g>
<g><path style="opacity:1" fill="#fefffe" d="M 59.5,459.5 C 66.1667,459.5 72.8333,459.5 79.5,459.5C 79.5,466.167 79.5,472.833 79.5,479.5C 72.8333,479.5 66.1667,479.5 59.5,479.5C 59.5,472.833 59.5,466.167 59.5,459.5 Z"/></g>
<g><path style="opacity:1" fill="#edeeed" d="M 79.5,459.5 C 86.1667,459.5 92.8333,459.5 99.5,459.5C 99.5,466.167 99.5,472.833 99.5,479.5C 92.8333,479.5 86.1667,479.5 79.5,479.5C 79.5,472.833 79.5,466.167 79.5,459.5 Z"/></g>
<g><path style="opacity:1" fill="#fefffe" d="M 99.5,459.5 C 106.167,459.5 112.833,459.5 119.5,459.5C 119.5,466.167 119.5,472.833 119.5,479.5C 112.833,479.5 106.167,479.5 99.5,479.5C 99.5,472.833 99.5,466.167 99.5,459.5 Z"/></g>
<g><path style="opacity:1" fill="#fefffe" d="M 679.5,479.5 C 672.833,479.5 666.167,479.5 659.5,479.5C 659.5,472.833 659.5,466.167 659.5,459.5C 666.167,459.5 672.833,459.5 679.5,459.5C 679.5,466.167 679.5,472.833 679.5,479.5 Z"/></g>
<g><path style="opacity:1" fill="#fefffe" d="M -0.5,479.5 C 6.16667,479.5 12.8333,479.5 19.5,479.5C 19.5,486.167 19.5,492.833 19.5,499.5C 12.8333,499.5 6.16667,499.5 -0.5,499.5C -0.5,492.833 -0.5,486.167 -0.5,479.5 Z"/></g>
<g><path style="opacity:1" fill="#edeeed" d="M 19.5,479.5 C 26.1667,479.5 32.8333,479.5 39.5,479.5C 39.5,486.167 39.5,492.833 39.5,499.5C 32.8333,499.5 26.1667,499.5 19.5,499.5C 19.5,492.833 19.5,486.167 19.5,479.5 Z"/></g>
<g><path style="opacity:1" fill="#fefffe" d="M 39.5,479.5 C 46.1667,479.5 52.8333,479.5 59.5,479.5C 59.5,486.167 59.5,492.833 59.5,499.5C 52.8333,499.5 46.1667,499.5 39.5,499.5C 39.5,492.833 39.5,486.167 39.5,479.5 Z"/></g>
<g><path style="opacity:1" fill="#edeeed" d="M 59.5,479.5 C 66.1667,479.5 72.8333,479.5 79.5,479.5C 79.5,486.167 79.5,492.833 79.5,499.5C 72.8333,499.5 66.1667,499.5 59.5,499.5C 59.5,492.833 59.5,486.167 59.5,479.5 Z"/></g>
<g><path style="opacity:1" fill="#fefffe" d="M 79.5,479.5 C 86.1667,479.5 92.8333,479.5 99.5,479.5C 99.5,486.167 99.5,492.833 99.5,499.5C 92.8333,499.5 86.1667,499.5 79.5,499.5C 79.5,492.833 79.5,486.167 79.5,479.5 Z"/></g>
<g><path style="opacity:1" fill="#edeeed" d="M 99.5,479.5 C 106.167,479.5 112.833,479.5 119.5,479.5C 119.5,486.167 119.5,492.833 119.5,499.5C 112.833,499.5 106.167,499.5 99.5,499.5C 99.5,492.833 99.5,486.167 99.5,479.5 Z"/></g>
<g><path style="opacity:1" fill="#edeeed" d="M -0.5,499.5 C 6.16667,499.5 12.8333,499.5 19.5,499.5C 19.5,506.167 19.5,512.833 19.5,519.5C 12.8333,519.5 6.16667,519.5 -0.5,519.5C -0.5,512.833 -0.5,506.167 -0.5,499.5 Z"/></g>
<g><path style="opacity:1" fill="#fefffe" d="M 19.5,499.5 C 26.1667,499.5 32.8333,499.5 39.5,499.5C 39.5,506.167 39.5,512.833 39.5,519.5C 32.8333,519.5 26.1667,519.5 19.5,519.5C 19.5,512.833 19.5,506.167 19.5,499.5 Z"/></g>
<g><path style="opacity:1" fill="#edeeed" d="M 39.5,499.5 C 46.1667,499.5 52.8333,499.5 59.5,499.5C 59.5,506.167 59.5,512.833 59.5,519.5C 52.8333,519.5 46.1667,519.5 39.5,519.5C 39.5,512.833 39.5,506.167 39.5,499.5 Z"/></g>
<g><path style="opacity:1" fill="#fefffe" d="M 59.5,499.5 C 66.1667,499.5 72.8333,499.5 79.5,499.5C 79.5,506.167 79.5,512.833 79.5,519.5C 72.8333,519.5 66.1667,519.5 59.5,519.5C 59.5,512.833 59.5,506.167 59.5,499.5 Z"/></g>
<g><path style="opacity:1" fill="#edeeed" d="M 79.5,499.5 C 86.1667,499.5 92.8333,499.5 99.5,499.5C 99.5,506.167 99.5,512.833 99.5,519.5C 92.8333,519.5 86.1667,519.5 79.5,519.5C 79.5,512.833 79.5,506.167 79.5,499.5 Z"/></g>
<g><path style="opacity:1" fill="#fefffe" d="M 99.5,499.5 C 106.167,499.5 112.833,499.5 119.5,499.5C 119.5,506.167 119.5,512.833 119.5,519.5C 112.833,519.5 106.167,519.5 99.5,519.5C 99.5,512.833 99.5,506.167 99.5,499.5 Z"/></g>
<g><path style="opacity:1" fill="#f6f6f6" d="M 642.5,479.5 C 648.167,479.5 653.833,479.5 659.5,479.5C 666.167,479.5 672.833,479.5 679.5,479.5C 686.167,479.5 692.833,479.5 699.5,479.5C 699.5,486.167 699.5,492.833 699.5,499.5C 706.167,499.5 712.833,499.5 719.5,499.5C 719.5,506.167 719.5,512.833 719.5,519.5C 726.167,519.5 732.833,519.5 739.5,519.5C 739.5,526.167 739.5,532.833 739.5,539.5C 746.167,539.5 752.833,539.5 759.5,539.5C 759.5,546.167 759.5,552.833 759.5,559.5C 766.167,559.5 772.833,559.5 779.5,559.5C 779.5,566.167 779.5,572.833 779.5,579.5C 786.167,579.5 792.833,579.5 799.5,579.5C 799.5,586.167 799.5,592.833 799.5,599.5C 806.167,599.5 812.833,599.5 819.5,599.5C 819.5,606.167 819.5,612.833 819.5,619.5C 826.167,619.5 832.833,619.5 839.5,619.5C 839.5,626.167 839.5,632.833 839.5,639.5C 846.167,639.5 852.833,639.5 859.5,639.5C 859.5,652.833 859.5,666.167 859.5,679.5C 852.833,679.5 846.167,679.5 839.5,679.5C 839.5,686.167 839.5,692.833 839.5,699.5C 832.833,699.5 826.167,699.5 819.5,699.5C 819.5,692.833 819.5,686.167 819.5,679.5C 812.833,679.5 806.167,679.5 799.5,679.5C 799.5,686.167 799.5,692.833 799.5,699.5C 792.833,699.5 786.167,699.5 779.5,699.5C 779.5,692.833 779.5,686.167 779.5,679.5C 772.833,679.5 766.167,679.5 759.5,679.5C 759.5,686.167 759.5,692.833 759.5,699.5C 752.833,699.5 746.167,699.5 739.5,699.5C 739.5,692.833 739.5,686.167 739.5,679.5C 732.833,679.5 726.167,679.5 719.5,679.5C 719.5,686.167 719.5,692.833 719.5,699.5C 712.833,699.5 706.167,699.5 699.5,699.5C 699.5,692.833 699.5,686.167 699.5,679.5C 692.833,679.5 686.167,679.5 679.5,679.5C 679.5,686.167 679.5,692.833 679.5,699.5C 672.833,699.5 666.167,699.5 659.5,699.5C 659.5,692.833 659.5,686.167 659.5,679.5C 652.833,679.5 646.167,679.5 639.5,679.5C 639.5,686.167 639.5,692.833 639.5,699.5C 632.833,699.5 626.167,699.5 619.5,699.5C 619.5,692.833 619.5,686.167 619.5,679.5C 612.833,679.5 606.167,679.5 599.5,679.5C 599.5,686.167 599.5,692.833 599.5,699.5C 592.833,699.5 586.167,699.5 579.5,699.5C 579.5,692.833 579.5,686.167 579.5,679.5C 572.833,679.5 566.167,679.5 559.5,679.5C 559.5,686.167 559.5,692.833 559.5,699.5C 552.833,699.5 546.167,699.5 539.5,699.5C 539.5,692.833 539.5,686.167 539.5,679.5C 539.5,672.833 539.5,666.167 539.5,659.5C 539.5,652.833 539.5,646.167 539.5,639.5C 539.5,632.833 539.5,626.167 539.5,619.5C 535.958,619.813 532.625,619.479 529.5,618.5C 532.225,608.375 532.058,598.375 529,588.5C 576.494,562.172 614.327,525.839 642.5,479.5 Z"/></g>
<g><path style="opacity:1" fill="#fefffe" d="M -0.5,519.5 C 6.16667,519.5 12.8333,519.5 19.5,519.5C 19.5,526.167 19.5,532.833 19.5,539.5C 12.8333,539.5 6.16667,539.5 -0.5,539.5C -0.5,532.833 -0.5,526.167 -0.5,519.5 Z"/></g>
<g><path style="opacity:1" fill="#edeeed" d="M 19.5,519.5 C 26.1667,519.5 32.8333,519.5 39.5,519.5C 39.5,526.167 39.5,532.833 39.5,539.5C 32.8333,539.5 26.1667,539.5 19.5,539.5C 19.5,532.833 19.5,526.167 19.5,519.5 Z"/></g>
<g><path style="opacity:1" fill="#fefffe" d="M 39.5,519.5 C 46.1667,519.5 52.8333,519.5 59.5,519.5C 59.5,526.167 59.5,532.833 59.5,539.5C 52.8333,539.5 46.1667,539.5 39.5,539.5C 39.5,532.833 39.5,526.167 39.5,519.5 Z"/></g>
<g><path style="opacity:1" fill="#edeeed" d="M 59.5,519.5 C 66.1667,519.5 72.8333,519.5 79.5,519.5C 79.5,526.167 79.5,532.833 79.5,539.5C 72.8333,539.5 66.1667,539.5 59.5,539.5C 59.5,532.833 59.5,526.167 59.5,519.5 Z"/></g>
<g><path style="opacity:1" fill="#fefffe" d="M 79.5,519.5 C 86.1667,519.5 92.8333,519.5 99.5,519.5C 99.5,526.167 99.5,532.833 99.5,539.5C 92.8333,539.5 86.1667,539.5 79.5,539.5C 79.5,532.833 79.5,526.167 79.5,519.5 Z"/></g>
<g><path style="opacity:1" fill="#edeeed" d="M 99.5,519.5 C 106.167,519.5 112.833,519.5 119.5,519.5C 119.5,526.167 119.5,532.833 119.5,539.5C 112.833,539.5 106.167,539.5 99.5,539.5C 99.5,532.833 99.5,526.167 99.5,519.5 Z"/></g>
<g><path style="opacity:1" fill="#edeeed" d="M -0.5,539.5 C 6.16667,539.5 12.8333,539.5 19.5,539.5C 19.5,546.167 19.5,552.833 19.5,559.5C 12.8333,559.5 6.16667,559.5 -0.5,559.5C -0.5,552.833 -0.5,546.167 -0.5,539.5 Z"/></g>
<g><path style="opacity:1" fill="#fefffe" d="M 19.5,539.5 C 26.1667,539.5 32.8333,539.5 39.5,539.5C 39.5,546.167 39.5,552.833 39.5,559.5C 32.8333,559.5 26.1667,559.5 19.5,559.5C 19.5,552.833 19.5,546.167 19.5,539.5 Z"/></g>
<g><path style="opacity:1" fill="#edeeed" d="M 39.5,539.5 C 46.1667,539.5 52.8333,539.5 59.5,539.5C 59.5,546.167 59.5,552.833 59.5,559.5C 52.8333,559.5 46.1667,559.5 39.5,559.5C 39.5,552.833 39.5,546.167 39.5,539.5 Z"/></g>
<g><path style="opacity:1" fill="#fefffe" d="M 59.5,539.5 C 66.1667,539.5 72.8333,539.5 79.5,539.5C 79.5,546.167 79.5,552.833 79.5,559.5C 72.8333,559.5 66.1667,559.5 59.5,559.5C 59.5,552.833 59.5,546.167 59.5,539.5 Z"/></g>
<g><path style="opacity:1" fill="#edeeed" d="M 79.5,539.5 C 86.1667,539.5 92.8333,539.5 99.5,539.5C 99.5,546.167 99.5,552.833 99.5,559.5C 92.8333,559.5 86.1667,559.5 79.5,559.5C 79.5,552.833 79.5,546.167 79.5,539.5 Z"/></g>
<g><path style="opacity:1" fill="#fefffe" d="M 99.5,539.5 C 106.167,539.5 112.833,539.5 119.5,539.5C 119.5,546.167 119.5,552.833 119.5,559.5C 112.833,559.5 106.167,559.5 99.5,559.5C 99.5,552.833 99.5,546.167 99.5,539.5 Z"/></g>
<g><path style="opacity:1" fill="#fcfcfc" d="M 261.5,539.5 C 262.552,539.351 263.552,539.517 264.5,540C 288.997,562.922 317.663,578.589 350.5,587C 392.287,599.31 434.954,604.976 478.5,604C 487.784,602.758 496.95,600.925 506,598.5C 506.772,598.645 507.439,598.978 508,599.5C 509.62,607.302 507.953,614.302 503,620.5C 493.998,629.089 483.498,635.256 471.5,639C 464.745,641.627 457.745,643.294 450.5,644C 403.62,645.224 358.62,636.557 315.5,618C 290.902,608.067 272.735,591.234 261,567.5C 257.51,558.073 257.676,548.739 261.5,539.5 Z"/></g>
<g><path style="opacity:1" fill="#fefffe" d="M -0.5,559.5 C 6.16667,559.5 12.8333,559.5 19.5,559.5C 19.5,566.167 19.5,572.833 19.5,579.5C 12.8333,579.5 6.16667,579.5 -0.5,579.5C -0.5,572.833 -0.5,566.167 -0.5,559.5 Z"/></g>
<g><path style="opacity:1" fill="#edeeed" d="M 19.5,559.5 C 26.1667,559.5 32.8333,559.5 39.5,559.5C 39.5,566.167 39.5,572.833 39.5,579.5C 32.8333,579.5 26.1667,579.5 19.5,579.5C 19.5,572.833 19.5,566.167 19.5,559.5 Z"/></g>
<g><path style="opacity:1" fill="#fefffe" d="M 39.5,559.5 C 46.1667,559.5 52.8333,559.5 59.5,559.5C 59.5,566.167 59.5,572.833 59.5,579.5C 52.8333,579.5 46.1667,579.5 39.5,579.5C 39.5,572.833 39.5,566.167 39.5,559.5 Z"/></g>
<g><path style="opacity:1" fill="#edeeed" d="M 59.5,559.5 C 66.1667,559.5 72.8333,559.5 79.5,559.5C 79.5,566.167 79.5,572.833 79.5,579.5C 72.8333,579.5 66.1667,579.5 59.5,579.5C 59.5,572.833 59.5,566.167 59.5,559.5 Z"/></g>
<g><path style="opacity:1" fill="#fefffe" d="M 79.5,559.5 C 86.1667,559.5 92.8333,559.5 99.5,559.5C 99.5,566.167 99.5,572.833 99.5,579.5C 92.8333,579.5 86.1667,579.5 79.5,579.5C 79.5,572.833 79.5,566.167 79.5,559.5 Z"/></g>
<g><path style="opacity:1" fill="#edeeed" d="M 99.5,559.5 C 106.167,559.5 112.833,559.5 119.5,559.5C 119.5,566.167 119.5,572.833 119.5,579.5C 112.833,579.5 106.167,579.5 99.5,579.5C 99.5,572.833 99.5,566.167 99.5,559.5 Z"/></g>
<g><path style="opacity:1" fill="#e8e8e8" d="M 236.5,546.5 C 235.236,566.463 240.903,584.13 253.5,599.5C 248.833,599.5 244.167,599.5 239.5,599.5C 239.5,592.833 239.5,586.167 239.5,579.5C 232.833,579.5 226.167,579.5 219.5,579.5C 219.5,572.833 219.5,566.167 219.5,559.5C 224.833,559.5 230.167,559.5 235.5,559.5C 235.182,554.968 235.515,550.634 236.5,546.5 Z"/></g>
<g><path style="opacity:1" fill="#edeeed" d="M -0.5,579.5 C 6.16667,579.5 12.8333,579.5 19.5,579.5C 19.5,586.167 19.5,592.833 19.5,599.5C 12.8333,599.5 6.16667,599.5 -0.5,599.5C -0.5,592.833 -0.5,586.167 -0.5,579.5 Z"/></g>
<g><path style="opacity:1" fill="#fefffe" d="M 19.5,579.5 C 26.1667,579.5 32.8333,579.5 39.5,579.5C 39.5,586.167 39.5,592.833 39.5,599.5C 32.8333,599.5 26.1667,599.5 19.5,599.5C 19.5,592.833 19.5,586.167 19.5,579.5 Z"/></g>
<g><path style="opacity:1" fill="#edeeed" d="M 39.5,579.5 C 46.1667,579.5 52.8333,579.5 59.5,579.5C 59.5,586.167 59.5,592.833 59.5,599.5C 52.8333,599.5 46.1667,599.5 39.5,599.5C 39.5,592.833 39.5,586.167 39.5,579.5 Z"/></g>
<g><path style="opacity:1" fill="#fefffe" d="M 59.5,579.5 C 66.1667,579.5 72.8333,579.5 79.5,579.5C 79.5,586.167 79.5,592.833 79.5,599.5C 72.8333,599.5 66.1667,599.5 59.5,599.5C 59.5,592.833 59.5,586.167 59.5,579.5 Z"/></g>
<g><path style="opacity:1" fill="#edeeed" d="M 79.5,579.5 C 86.1667,579.5 92.8333,579.5 99.5,579.5C 99.5,586.167 99.5,592.833 99.5,599.5C 92.8333,599.5 86.1667,599.5 79.5,599.5C 79.5,592.833 79.5,586.167 79.5,579.5 Z"/></g>
<g><path style="opacity:1" fill="#fefffe" d="M 99.5,579.5 C 106.167,579.5 112.833,579.5 119.5,579.5C 119.5,586.167 119.5,592.833 119.5,599.5C 112.833,599.5 106.167,599.5 99.5,599.5C 99.5,592.833 99.5,586.167 99.5,579.5 Z"/></g>
<g><path style="opacity:1" fill="#fefffe" d="M -0.5,599.5 C 6.16667,599.5 12.8333,599.5 19.5,599.5C 19.5,606.167 19.5,612.833 19.5,619.5C 12.8333,619.5 6.16667,619.5 -0.5,619.5C -0.5,612.833 -0.5,606.167 -0.5,599.5 Z"/></g>
<g><path style="opacity:1" fill="#edeeed" d="M 19.5,599.5 C 26.1667,599.5 32.8333,599.5 39.5,599.5C 39.5,606.167 39.5,612.833 39.5,619.5C 32.8333,619.5 26.1667,619.5 19.5,619.5C 19.5,612.833 19.5,606.167 19.5,599.5 Z"/></g>
<g><path style="opacity:1" fill="#fefffe" d="M 39.5,599.5 C 46.1667,599.5 52.8333,599.5 59.5,599.5C 59.5,606.167 59.5,612.833 59.5,619.5C 52.8333,619.5 46.1667,619.5 39.5,619.5C 39.5,612.833 39.5,606.167 39.5,599.5 Z"/></g>
<g><path style="opacity:1" fill="#edeeed" d="M 59.5,599.5 C 66.1667,599.5 72.8333,599.5 79.5,599.5C 79.5,606.167 79.5,612.833 79.5,619.5C 72.8333,619.5 66.1667,619.5 59.5,619.5C 59.5,612.833 59.5,606.167 59.5,599.5 Z"/></g>
<g><path style="opacity:1" fill="#fefffe" d="M 79.5,599.5 C 86.1667,599.5 92.8333,599.5 99.5,599.5C 99.5,606.167 99.5,612.833 99.5,619.5C 92.8333,619.5 86.1667,619.5 79.5,619.5C 79.5,612.833 79.5,606.167 79.5,599.5 Z"/></g>
<g><path style="opacity:1" fill="#edeeed" d="M 99.5,599.5 C 106.167,599.5 112.833,599.5 119.5,599.5C 119.5,606.167 119.5,612.833 119.5,619.5C 112.833,619.5 106.167,619.5 99.5,619.5C 99.5,612.833 99.5,606.167 99.5,599.5 Z"/></g>
<g><path style="opacity:1" fill="#edeeed" d="M -0.5,619.5 C 6.16667,619.5 12.8333,619.5 19.5,619.5C 19.5,626.167 19.5,632.833 19.5,639.5C 12.8333,639.5 6.16667,639.5 -0.5,639.5C -0.5,632.833 -0.5,626.167 -0.5,619.5 Z"/></g>
<g><path style="opacity:1" fill="#fefffe" d="M 19.5,619.5 C 26.1667,619.5 32.8333,619.5 39.5,619.5C 39.5,626.167 39.5,632.833 39.5,639.5C 32.8333,639.5 26.1667,639.5 19.5,639.5C 19.5,632.833 19.5,626.167 19.5,619.5 Z"/></g>
<g><path style="opacity:1" fill="#edeeed" d="M 39.5,619.5 C 46.1667,619.5 52.8333,619.5 59.5,619.5C 59.5,626.167 59.5,632.833 59.5,639.5C 52.8333,639.5 46.1667,639.5 39.5,639.5C 39.5,632.833 39.5,626.167 39.5,619.5 Z"/></g>
<g><path style="opacity:1" fill="#fefffe" d="M 59.5,619.5 C 66.1667,619.5 72.8333,619.5 79.5,619.5C 79.5,626.167 79.5,632.833 79.5,639.5C 72.8333,639.5 66.1667,639.5 59.5,639.5C 59.5,632.833 59.5,626.167 59.5,619.5 Z"/></g>
<g><path style="opacity:1" fill="#edeeed" d="M 79.5,619.5 C 86.1667,619.5 92.8333,619.5 99.5,619.5C 99.5,626.167 99.5,632.833 99.5,639.5C 92.8333,639.5 86.1667,639.5 79.5,639.5C 79.5,632.833 79.5,626.167 79.5,619.5 Z"/></g>
<g><path style="opacity:1" fill="#fefffe" d="M 99.5,619.5 C 106.167,619.5 112.833,619.5 119.5,619.5C 119.5,626.167 119.5,632.833 119.5,639.5C 112.833,639.5 106.167,639.5 99.5,639.5C 99.5,632.833 99.5,626.167 99.5,619.5 Z"/></g>
<g><path style="opacity:1" fill="#fefffe" d="M -0.5,639.5 C 6.16667,639.5 12.8333,639.5 19.5,639.5C 19.5,646.167 19.5,652.833 19.5,659.5C 12.8333,659.5 6.16667,659.5 -0.5,659.5C -0.5,652.833 -0.5,646.167 -0.5,639.5 Z"/></g>
<g><path style="opacity:1" fill="#edeeed" d="M 19.5,639.5 C 26.1667,639.5 32.8333,639.5 39.5,639.5C 39.5,646.167 39.5,652.833 39.5,659.5C 32.8333,659.5 26.1667,659.5 19.5,659.5C 19.5,652.833 19.5,646.167 19.5,639.5 Z"/></g>
<g><path style="opacity:1" fill="#fefffe" d="M 39.5,639.5 C 46.1667,639.5 52.8333,639.5 59.5,639.5C 59.5,646.167 59.5,652.833 59.5,659.5C 52.8333,659.5 46.1667,659.5 39.5,659.5C 39.5,652.833 39.5,646.167 39.5,639.5 Z"/></g>
<g><path style="opacity:1" fill="#edeeed" d="M 59.5,639.5 C 66.1667,639.5 72.8333,639.5 79.5,639.5C 79.5,646.167 79.5,652.833 79.5,659.5C 72.8333,659.5 66.1667,659.5 59.5,659.5C 59.5,652.833 59.5,646.167 59.5,639.5 Z"/></g>
<g><path style="opacity:1" fill="#fefffe" d="M 79.5,639.5 C 86.1667,639.5 92.8333,639.5 99.5,639.5C 99.5,646.167 99.5,652.833 99.5,659.5C 92.8333,659.5 86.1667,659.5 79.5,659.5C 79.5,652.833 79.5,646.167 79.5,639.5 Z"/></g>
<g><path style="opacity:1" fill="#edeeed" d="M 99.5,639.5 C 106.167,639.5 112.833,639.5 119.5,639.5C 119.5,646.167 119.5,652.833 119.5,659.5C 112.833,659.5 106.167,659.5 99.5,659.5C 99.5,652.833 99.5,646.167 99.5,639.5 Z"/></g>
<g><path style="opacity:1" fill="#fefffe" d="M 539.5,639.5 C 539.5,646.167 539.5,652.833 539.5,659.5C 532.833,659.5 526.167,659.5 519.5,659.5C 519.5,652.833 519.5,646.167 519.5,639.5C 526.167,639.5 532.833,639.5 539.5,639.5 Z"/></g>
<g><path style="opacity:1" fill="#edeeed" d="M -0.5,659.5 C 6.16667,659.5 12.8333,659.5 19.5,659.5C 19.5,666.167 19.5,672.833 19.5,679.5C 12.8333,679.5 6.16667,679.5 -0.5,679.5C -0.5,672.833 -0.5,666.167 -0.5,659.5 Z"/></g>
<g><path style="opacity:1" fill="#fefffe" d="M 19.5,659.5 C 26.1667,659.5 32.8333,659.5 39.5,659.5C 39.5,666.167 39.5,672.833 39.5,679.5C 32.8333,679.5 26.1667,679.5 19.5,679.5C 19.5,672.833 19.5,666.167 19.5,659.5 Z"/></g>
<g><path style="opacity:1" fill="#edeeed" d="M 39.5,659.5 C 46.1667,659.5 52.8333,659.5 59.5,659.5C 59.5,666.167 59.5,672.833 59.5,679.5C 52.8333,679.5 46.1667,679.5 39.5,679.5C 39.5,672.833 39.5,666.167 39.5,659.5 Z"/></g>
<g><path style="opacity:1" fill="#fefffe" d="M 59.5,659.5 C 66.1667,659.5 72.8333,659.5 79.5,659.5C 79.5,666.167 79.5,672.833 79.5,679.5C 72.8333,679.5 66.1667,679.5 59.5,679.5C 59.5,672.833 59.5,666.167 59.5,659.5 Z"/></g>
<g><path style="opacity:1" fill="#edeeed" d="M 79.5,659.5 C 86.1667,659.5 92.8333,659.5 99.5,659.5C 99.5,666.167 99.5,672.833 99.5,679.5C 92.8333,679.5 86.1667,679.5 79.5,679.5C 79.5,672.833 79.5,666.167 79.5,659.5 Z"/></g>
<g><path style="opacity:1" fill="#fefffe" d="M 99.5,659.5 C 106.167,659.5 112.833,659.5 119.5,659.5C 119.5,666.167 119.5,672.833 119.5,679.5C 112.833,679.5 106.167,679.5 99.5,679.5C 99.5,672.833 99.5,666.167 99.5,659.5 Z"/></g>
<g><path style="opacity:1" fill="#f1f1f1" d="M 529.5,618.5 C 532.625,619.479 535.958,619.813 539.5,619.5C 539.5,626.167 539.5,632.833 539.5,639.5C 532.833,639.5 526.167,639.5 519.5,639.5C 519.5,646.167 519.5,652.833 519.5,659.5C 526.167,659.5 532.833,659.5 539.5,659.5C 539.5,666.167 539.5,672.833 539.5,679.5C 532.833,679.5 526.167,679.5 519.5,679.5C 519.5,686.167 519.5,692.833 519.5,699.5C 512.833,699.5 506.167,699.5 499.5,699.5C 499.5,692.833 499.5,686.167 499.5,679.5C 492.833,679.5 486.167,679.5 479.5,679.5C 479.5,686.167 479.5,692.833 479.5,699.5C 472.833,699.5 466.167,699.5 459.5,699.5C 459.5,692.833 459.5,686.167 459.5,679.5C 452.833,679.5 446.167,679.5 439.5,679.5C 439.5,686.167 439.5,692.833 439.5,699.5C 432.833,699.5 426.167,699.5 419.5,699.5C 419.5,692.833 419.5,686.167 419.5,679.5C 412.833,679.5 406.167,679.5 399.5,679.5C 399.5,686.167 399.5,692.833 399.5,699.5C 392.833,699.5 386.167,699.5 379.5,699.5C 379.5,692.833 379.5,686.167 379.5,679.5C 372.833,679.5 366.167,679.5 359.5,679.5C 359.5,686.167 359.5,692.833 359.5,699.5C 352.833,699.5 346.167,699.5 339.5,699.5C 339.5,692.833 339.5,686.167 339.5,679.5C 332.833,679.5 326.167,679.5 319.5,679.5C 319.5,672.833 319.5,666.167 319.5,659.5C 312.833,659.5 306.167,659.5 299.5,659.5C 299.5,652.833 299.5,646.167 299.5,639.5C 292.833,639.5 286.167,639.5 279.5,639.5C 279.5,634.5 279.5,629.5 279.5,624.5C 327.02,650.8 378.02,665.133 432.5,667.5C 456.621,667.97 479.287,662.47 500.5,651C 514.309,643.701 523.975,632.867 529.5,618.5 Z"/></g>
<g><path style="opacity:1" fill="#fafafa" d="M -0.5,679.5 C 6.16667,679.5 12.8333,679.5 19.5,679.5C 26.1667,679.5 32.8333,679.5 39.5,679.5C 46.1667,679.5 52.8333,679.5 59.5,679.5C 66.1667,679.5 72.8333,679.5 79.5,679.5C 86.1667,679.5 92.8333,679.5 99.5,679.5C 106.167,679.5 112.833,679.5 119.5,679.5C 126.167,679.5 132.833,679.5 139.5,679.5C 139.5,686.167 139.5,692.833 139.5,699.5C 146.167,699.5 152.833,699.5 159.5,699.5C 159.5,692.833 159.5,686.167 159.5,679.5C 166.167,679.5 172.833,679.5 179.5,679.5C 179.5,686.167 179.5,692.833 179.5,699.5C 186.167,699.5 192.833,699.5 199.5,699.5C 199.5,692.833 199.5,686.167 199.5,679.5C 206.167,679.5 212.833,679.5 219.5,679.5C 219.5,686.167 219.5,692.833 219.5,699.5C 226.167,699.5 232.833,699.5 239.5,699.5C 239.5,692.833 239.5,686.167 239.5,679.5C 246.167,679.5 252.833,679.5 259.5,679.5C 259.5,686.167 259.5,692.833 259.5,699.5C 266.167,699.5 272.833,699.5 279.5,699.5C 279.5,692.833 279.5,686.167 279.5,679.5C 286.167,679.5 292.833,679.5 299.5,679.5C 299.5,686.167 299.5,692.833 299.5,699.5C 306.167,699.5 312.833,699.5 319.5,699.5C 319.5,692.833 319.5,686.167 319.5,679.5C 326.167,679.5 332.833,679.5 339.5,679.5C 339.5,686.167 339.5,692.833 339.5,699.5C 346.167,699.5 352.833,699.5 359.5,699.5C 359.5,692.833 359.5,686.167 359.5,679.5C 366.167,679.5 372.833,679.5 379.5,679.5C 379.5,686.167 379.5,692.833 379.5,699.5C 386.167,699.5 392.833,699.5 399.5,699.5C 399.5,692.833 399.5,686.167 399.5,679.5C 406.167,679.5 412.833,679.5 419.5,679.5C 419.5,686.167 419.5,692.833 419.5,699.5C 426.167,699.5 432.833,699.5 439.5,699.5C 439.5,692.833 439.5,686.167 439.5,679.5C 446.167,679.5 452.833,679.5 459.5,679.5C 459.5,686.167 459.5,692.833 459.5,699.5C 466.167,699.5 472.833,699.5 479.5,699.5C 479.5,692.833 479.5,686.167 479.5,679.5C 486.167,679.5 492.833,679.5 499.5,679.5C 499.5,686.167 499.5,692.833 499.5,699.5C 506.167,699.5 512.833,699.5 519.5,699.5C 519.5,692.833 519.5,686.167 519.5,679.5C 526.167,679.5 532.833,679.5 539.5,679.5C 539.5,686.167 539.5,692.833 539.5,699.5C 546.167,699.5 552.833,699.5 559.5,699.5C 559.5,692.833 559.5,686.167 559.5,679.5C 566.167,679.5 572.833,679.5 579.5,679.5C 579.5,686.167 579.5,692.833 579.5,699.5C 586.167,699.5 592.833,699.5 599.5,699.5C 599.5,692.833 599.5,686.167 599.5,679.5C 606.167,679.5 612.833,679.5 619.5,679.5C 619.5,686.167 619.5,692.833 619.5,699.5C 626.167,699.5 632.833,699.5 639.5,699.5C 639.5,692.833 639.5,686.167 639.5,679.5C 646.167,679.5 652.833,679.5 659.5,679.5C 659.5,686.167 659.5,692.833 659.5,699.5C 666.167,699.5 672.833,699.5 679.5,699.5C 679.5,692.833 679.5,686.167 679.5,679.5C 686.167,679.5 692.833,679.5 699.5,679.5C 699.5,686.167 699.5,692.833 699.5,699.5C 706.167,699.5 712.833,699.5 719.5,699.5C 719.5,692.833 719.5,686.167 719.5,679.5C 726.167,679.5 732.833,679.5 739.5,679.5C 739.5,686.167 739.5,692.833 739.5,699.5C 746.167,699.5 752.833,699.5 759.5,699.5C 759.5,692.833 759.5,686.167 759.5,679.5C 766.167,679.5 772.833,679.5 779.5,679.5C 779.5,686.167 779.5,692.833 779.5,699.5C 786.167,699.5 792.833,699.5 799.5,699.5C 799.5,692.833 799.5,686.167 799.5,679.5C 806.167,679.5 812.833,679.5 819.5,679.5C 819.5,686.167 819.5,692.833 819.5,699.5C 826.167,699.5 832.833,699.5 839.5,699.5C 839.5,692.833 839.5,686.167 839.5,679.5C 846.167,679.5 852.833,679.5 859.5,679.5C 859.5,688.833 859.5,698.167 859.5,707.5C 572.833,707.5 286.167,707.5 -0.5,707.5C -0.5,698.167 -0.5,688.833 -0.5,679.5 Z"/></g>
</svg>
